<?xml version="1.0" encoding="UTF-8" standalone="no"?>
<!-- Created with Inkscape (http://www.inkscape.org/) -->

<svg
   width="174.32986mm"
   height="59.669605mm"
   viewBox="0 0 174.32986 59.669605"
   version="1.1"
   id="svg1"
   xmlns:xlink="http://www.w3.org/1999/xlink"
   xmlns="http://www.w3.org/2000/svg"
   xmlns:svg="http://www.w3.org/2000/svg">
  <defs
     id="defs1">
    <linearGradient
       id="linearGradient68">
      <stop
         style="stop-color:#ffffff;stop-opacity:0.70909454;"
         offset="0"
         id="stop68" />
      <stop
         style="stop-color:#ffffff;stop-opacity:0;"
         offset="1"
         id="stop69" />
    </linearGradient>
    <linearGradient
       id="linearGradient183">
      <stop
         style="stop-color:#197c98;stop-opacity:1;"
         offset="0"
         id="stop179" />
      <stop
         style="stop-color:#22888f;stop-opacity:1;"
         offset="0.26135886"
         id="stop180" />
      <stop
         style="stop-color:#f2fb00;stop-opacity:1;"
         offset="0.49354619"
         id="stop181" />
      <stop
         style="stop-color:#67cc56;stop-opacity:1;"
         offset="0.67136145"
         id="stop182" />
      <stop
         style="stop-color:#5fd35b;stop-opacity:1;"
         offset="1"
         id="stop183" />
    </linearGradient>
    <linearGradient
       xlink:href="#linearGradient68"
       id="linearGradient70"
       gradientUnits="userSpaceOnUse"
       x1="153.64851"
       y1="89.796333"
       x2="193.63573"
       y2="89.796333"
       gradientTransform="translate(-8.9395868e-7,-4.010354e-5)" />
    <linearGradient
       xlink:href="#linearGradient183"
       id="linearGradient72"
       x1="153.91309"
       y1="89.796333"
       x2="193.37114"
       y2="89.796333"
       gradientUnits="userSpaceOnUse" />
    <linearGradient
       xlink:href="#linearGradient183"
       id="linearGradient86"
       x1="47.085327"
       y1="119.77755"
       x2="219.17665"
       y2="119.77755"
       gradientUnits="userSpaceOnUse" />
  </defs>
  <g
     id="layer1"
     transform="translate(-46.566667,-76.72917)">
    <path
       id="path41"
       style="display:inline;fill:url(#linearGradient72);stroke:none;stroke-width:0.529167;stroke-linecap:square;stroke-linejoin:round;stroke-dasharray:none;stroke-opacity:0.709095"
       d="m 173.68914,78.631896 a 2.059957,2.059957 0 0 0 -2.06034,2.059823 2.059957,2.059957 0 0 0 0.87902,1.687752 l -0.88677,3.499528 -2.76934,5.267379 a 0.39691468,0.39691468 0 0 0 0.10542,0.498161 l 1.77147,1.390612 v 2.87476 a 0.39691468,0.39691468 0 0 0 0.39274,0.396875 l 4.76146,0.04496 0.39636,0.0036 0.008,-0.792716 -0.39687,-0.0041 -4.36873,-0.04289 v -2.673738 a 0.39691468,0.39691468 0 0 0 -0.15037,-0.310576 l -1.66399,-1.306897 2.6386,-5.017265 a 0.39691468,0.39691468 0 0 0 0.0351,-0.08785 l 0.86352,-3.416329 a 2.059957,2.059957 0 0 0 0.44493,0.04857 2.059957,2.059957 0 0 0 0.46974,-0.05736 2.059957,2.059957 0 0 1 -0.0693,0.01809 l 2.38694,6.377389 a 0.39691468,0.39691468 0 0 0 0.0258,0.05891 l 1.09915,1.921846 a 0.39691468,0.39691468 0 0 0 0.68006,0.0155 l 1.07953,-1.704288 c -0.0338,-0.02888 -0.065,-0.06137 -0.0951,-0.09095 -0.0619,-0.06195 -0.11924,-0.127852 -0.17363,-0.19637 -0.0631,-0.05161 -0.12404,-0.105619 -0.18087,-0.164331 -0.0242,-0.02655 -0.0149,-0.01704 -0.0331,-0.03462 -0.0154,-0.0091 -0.0305,-0.01861 -0.045,-0.02945 h -5.2e-4 -5.1e-4 v -5.17e-4 l -5.2e-4,-5.17e-4 h -5.2e-4 v -5.16e-4 h -5.1e-4 c -0.0196,-0.0081 -0.0357,-0.02661 -0.0543,-0.03772 l -5.1e-4,-5.17e-4 h -5.2e-4 v -5.17e-4 h -5.2e-4 v -5.16e-4 h -5.1e-4 l -5.2e-4,-5.17e-4 -5.2e-4,-5.17e-4 -0.81132,1.281575 -0.75602,-1.322399 -2.38229,-6.372221 a 2.059957,2.059957 0 0 1 -0.0568,0.03256 2.059957,2.059957 0 0 0 0.98185,-1.751831 2.059957,2.059957 0 0 0 -2.05982,-2.059823 z m -17.39532,5.192448 a 2.3803945,2.3803945 0 0 0 -2.38073,2.380733 2.3803945,2.3803945 0 0 0 2.38073,2.380217 2.3803945,2.3803945 0 0 0 0.27699,-0.01602 l 3.09903,9.342582 0.12506,0.377238 0.75396,-0.250114 -0.12506,-0.376721 -3.09025,-9.316227 a 2.3803945,2.3803945 0 0 0 0.60616,-0.42168 l 6.19704,5.354712 a 0.39691468,0.39691468 0 0 0 0.63097,-0.156063 l 1.6583,-4.314982 a 1.9226264,1.9226264 0 0 0 1.7694,-1.916162 1.9226264,1.9226264 0 0 0 -1.92236,-1.92288 1.9226264,1.9226264 0 0 0 -1.92288,1.92288 1.9226264,1.9226264 0 0 0 1.26762,1.807642 l -1.38906,3.611149 -5.81412,-5.025016 a 2.3803945,2.3803945 0 0 0 0.25942,-1.080555 2.3803945,2.3803945 0 0 0 -2.38022,-2.380733 z m 34.69659,0.21084 a 2.3803945,2.3803945 0 0 0 -2.38022,2.380733 2.3803945,2.3803945 0 0 0 0.25942,1.080554 l -5.81412,5.025017 -1.38906,-3.611149 a 1.9226264,1.9226264 0 0 0 1.26762,-1.807642 1.9226264,1.9226264 0 0 0 -1.92288,-1.92288 1.9226264,1.9226264 0 0 0 -1.92236,1.92288 1.9226264,1.9226264 0 0 0 1.7694,1.916162 l 1.6583,4.314982 a 0.39691468,0.39691468 0 0 0 0.63097,0.156063 l 6.19704,-5.354712 a 2.3803945,2.3803945 0 0 0 0.60616,0.42168 l -3.09025,9.316227 -0.12506,0.376721 0.75396,0.250114 0.12506,-0.377238 3.09903,-9.342582 a 2.3803945,2.3803945 0 0 0 0.27699,0.01602 2.3803945,2.3803945 0 0 0 2.38073,-2.380217 2.3803945,2.3803945 0 0 0 -2.38073,-2.380733 z m -30.63896,7.281209 -0.73225,0.306442 0.15399,0.365352 2.10582,5.035351 a 0.39691468,0.39691468 0 0 0 0.40049,0.241846 l 3.68143,-0.326078 -0.0377,2.072742 c -1.70685,0.247183 -3.39775,0.596628 -5.06274,1.046452 l -0.38293,0.10386 0.20723,0.76533 0.38292,-0.10335 c 1.66965,-0.45108 3.3675,-0.79992 5.07979,-1.043347 4.47291,-0.635899 9.03819,-0.550642 13.53716,0.0021 2.12436,0.260947 4.2353,0.625397 6.32416,1.091917 l 0.38654,0.0858 0.17415,-0.77515 -0.38706,-0.0858 c -2.00515,-0.447826 -4.03188,-0.803225 -6.06991,-1.064018 l -0.0429,0.298173 h -0.001 l 0.0563,-0.392741 0.64079,-4.452958 1.4025,2.833935 a 0.39691468,0.39691468 0 0 0 0.23048,0.199471 l 1.7849,0.595313 a 0.39691468,0.39691468 0 0 0 0.49196,-0.226343 l 1.14463,-2.791044 0.15038,-0.36742 -0.73432,-0.302307 -0.15038,0.366903 -1.00407,2.449463 -1.27538,-0.423747 -1.89445,-3.835941 a 0.39691468,0.39691468 0 0 0 -0.34004,-0.222726 0.39691468,0.39691468 0 0 0 -0.40979,0.343648 l -0.82424,5.720582 -0.016,0.111104 c -2.12649,-0.245886 -4.26908,-0.386269 -6.41253,-0.396358 h -0.001 c -2.06736,-0.0097 -4.13559,0.102598 -6.18929,0.361218 l -0.004,0.217041 -0.006,0.396358 h -0.001 l 0.006,-0.396358 0.047,-2.609143 a 0.39691468,0.39691468 0 0 0 -0.43202,-0.40256 l -3.8318,0.340031 -1.99213,-4.767667 z" />
    <path
       id="path41-4"
       style="display:inline;fill:#303030;fill-opacity:1;stroke:url(#linearGradient70);stroke-width:0.529167;stroke-linecap:square;stroke-linejoin:round;stroke-dasharray:none;stroke-opacity:0.709095"
       d="m 173.68914,78.631896 a 2.059957,2.059957 0 0 0 -2.06034,2.059823 2.059957,2.059957 0 0 0 0.40359,1.224215 c 0.13026,-0.201316 0.26449,-0.399841 0.40463,-0.594796 0.56803,-0.745781 1.16802,-1.467027 1.87844,-2.083594 0.12977,-0.113633 0.26138,-0.225071 0.39429,-0.334863 a 2.059957,2.059957 0 0 0 -1.02061,-0.270785 z m -17.39532,5.192448 a 2.3803945,2.3803945 0 0 0 -0.33228,0.02326 c 0.094,0.101568 0.18747,0.20352 0.2806,0.305924 0.51759,0.561933 1.00564,1.149529 1.5012,1.730644 0.25335,0.339511 0.54787,0.639102 0.85163,0.930176 a 2.3803945,2.3803945 0 0 0 0.0791,-0.609266 2.3803945,2.3803945 0 0 0 -2.38022,-2.380733 z m 36.55384,1.101742 c -0.34416,0.152156 -0.68848,0.305028 -1.02733,0.468705 -0.38951,0.200358 -0.79674,0.366105 -1.18649,0.56534 -0.361,0.211891 -0.73072,0.409002 -1.09399,0.617017 0.26078,0.08255 0.52186,0.164057 0.78238,0.245463 0.91357,0.269022 1.83389,0.50996 2.75901,0.731221 a 2.3803945,2.3803945 0 0 0 0.2899,-1.137915 2.3803945,2.3803945 0 0 0 -0.52348,-1.489831 z m -26.5746,0.04289 a 1.9226264,1.9226264 0 0 0 -1.92237,1.876371 c 0.0923,-0.0558 0.1851,-0.110825 0.27854,-0.164847 0.6068,-0.337223 1.21747,-0.667479 1.84588,-0.962732 0.29896,-0.13914 0.60137,-0.270659 0.90537,-0.397909 a 1.9226264,1.9226264 0 0 0 -1.10742,-0.350883 z m 10.13736,1.686202 c -0.10098,0.02977 -0.20158,0.05988 -0.30231,0.09043 -0.13042,0.104702 -0.26064,0.209906 -0.39067,0.315226 l 0.75913,2.028817 a 0.39691468,0.39691468 0 0 0 0.0258,0.05891 l 1.09915,1.921846 a 0.39691468,0.39691468 0 0 0 0.0806,0.09974 c 0.0864,0.0183 0.16684,0.05198 0.23926,0.09974 a 0.39691468,0.39691468 0 0 0 0.36018,-0.183969 l 1.07953,-1.704288 c -0.0338,-0.02888 -0.065,-0.06137 -0.0951,-0.09095 -0.0619,-0.06195 -0.11924,-0.127852 -0.17363,-0.19637 -0.0631,-0.05161 -0.12404,-0.105619 -0.18087,-0.164331 -0.0242,-0.02655 -0.0149,-0.01704 -0.0331,-0.03462 -0.0154,-0.0091 -0.0305,-0.01861 -0.045,-0.02945 h -5.2e-4 -5.1e-4 v -5.17e-4 l -5.2e-4,-5.17e-4 h -5.2e-4 v -5.16e-4 h -5.1e-4 c -0.0196,-0.0081 -0.0357,-0.02661 -0.0543,-0.03772 l -5.1e-4,-5.17e-4 h -5.2e-4 v -5.17e-4 h -5.2e-4 v -5.16e-4 h -5.1e-4 l -5.2e-4,-5.17e-4 -5.2e-4,-5.17e-4 -0.81132,1.281575 -0.75602,-1.322399 z m 4.59869,0.933793 c 0.0105,0.02769 0.0222,0.05126 0.0351,0.07183 0.005,-0.01189 0.0111,-0.02376 0.0165,-0.03566 -0.0171,-0.01197 -0.0344,-0.02416 -0.0517,-0.03617 z m 4.94646,2.426209 -1.19579,1.033528 c -0.0194,0.03453 -0.0471,0.08734 -0.0894,0.171566 0.0816,0.05872 -0.008,0.08451 -0.061,0.118339 -10e-4,0.0059 -0.009,0.01801 -0.0109,0.02429 -0.0235,0.06311 -0.0477,0.125252 -0.0724,0.188102 -0.16088,0.377854 -0.35454,0.73885 -0.57929,1.082105 -0.14337,0.192312 -0.29949,0.374646 -0.45372,0.558105 l 3.32641,-2.874243 c -0.28883,-0.09795 -0.5772,-0.198276 -0.86403,-0.30179 z m 3.1657,1.041797 -1.21078,3.649906 c 0.29116,-0.05126 0.58332,-0.09159 0.87695,-0.120923 l 1.09813,-3.309875 c -0.25522,-0.07097 -0.51005,-0.144197 -0.7643,-0.219108 z m -4.53047,0.295589 c -0.009,0.0085 -0.0148,0.01811 -0.0145,0.02842 1e-5,3.8e-4 1e-5,8.06e-4 0,0.001 v 5.17e-4 5.17e-4 5.17e-4 l 5.2e-4,5.16e-4 v 5.17e-4 h 5.1e-4 v -5.17e-4 h 5.2e-4 c 0.002,-0.004 0.007,-0.0195 0.0129,-0.03152 z m -13.42347,1.018542 c -0.14665,0.285914 -0.29287,0.572043 -0.43873,0.858346 v 2.680456 a 0.39691468,0.39691468 0 0 0 0.39274,0.396875 l 2.23397,0.02119 c 0.024,-0.06487 0.0489,-0.12949 0.0749,-0.193787 0.10706,-0.209546 0.2304,-0.407526 0.3669,-0.596346 l -2.27583,-0.02222 v -2.673738 a 0.39691468,0.39691468 0 0 0 -0.15037,-0.310576 z m -9.92239,1.669149 c -0.14672,0.13922 -0.29272,0.279125 -0.43822,0.419613 l 1.07229,2.563667 a 0.39691468,0.39691468 0 0 0 0.40049,0.241846 l 1.47433,-0.130741 c 0.13756,-0.279014 0.27719,-0.556938 0.41858,-0.834058 l -1.67535,0.148828 -0.96738,-2.315621 c -0.0955,-0.0298 -0.19031,-0.06078 -0.28474,-0.09353 z m 23.9913,0.38964 -0.15038,0.366903 -0.81132,1.979724 c 0.26566,-0.195894 0.53621,-0.38492 0.80615,-0.575675 0.13653,-0.10557 0.27553,-0.208087 0.41496,-0.309542 l 0.32453,-0.791683 0.15038,-0.36742 z m -3.40238,0.42323 c -0.17392,0.242331 -0.35146,0.481986 -0.53175,0.719336 l 0.8661,1.749764 a 0.39691468,0.39691468 0 0 0 0.23048,0.199471 l 0.66817,0.222726 c 0.23657,-0.203522 0.47651,-0.402671 0.72141,-0.59583 l -0.98186,-0.326078 z m -22.1263,0.649573 c -0.10106,0.09189 -0.20291,0.183025 -0.30592,0.272852 -0.11277,0.102233 -0.2259,0.204596 -0.33848,0.307474 l 0.60668,1.828829 0.12506,0.377238 0.75396,-0.250114 -0.12506,-0.376721 z m 28.43703,1.02216 c -0.11154,0.02064 -0.22309,0.0432 -0.33435,0.0677 -0.24174,0.06249 -0.43964,0.203525 -0.63924,0.344165 l -0.31057,0.936377 -0.12506,0.376721 0.75396,0.250114 0.12506,-0.377238 z m -7.68945,0.120923 c -0.3164,0.387016 -0.63952,0.76856 -0.9679,1.145666 l -0.14935,1.03663 -0.016,0.111104 c -0.26019,-0.03009 -0.5207,-0.05838 -0.78135,-0.08527 -0.22327,0.245415 -0.44803,0.489321 -0.67386,0.732255 0.60694,0.0568 1.21305,0.122561 1.81798,0.196887 0.36237,0.04451 0.72417,0.0921 1.08572,0.142627 0.22085,-0.240678 0.44621,-0.476653 0.67955,-0.704867 -0.44524,-0.06618 -0.89096,-0.127875 -1.33739,-0.185001 l -0.0429,0.298173 h -0.001 l 0.0563,-0.392741 z m -8.50284,1.901176 c -1.36842,0.01884 -2.73635,0.09281 -4.09898,0.228926 -0.13972,0.27921 -0.27716,0.559619 -0.41186,0.841293 1.31032,-0.145785 2.62706,-0.232238 3.94653,-0.265617 0.17307,-0.279289 0.36314,-0.546262 0.56431,-0.804602 z m 11.77912,1.053682 c -0.16745,0.152304 -0.33288,0.306501 -0.49661,0.462509 -0.0804,0.0698 -0.15966,0.14045 -0.23771,0.21239 1.00827,0.17628 2.01259,0.3763 3.0117,0.59944 l 0.38654,0.0858 0.17415,-0.77515 -0.38706,-0.0858 c -0.81366,-0.181737 -1.63092,-0.348061 -2.45101,-0.499199 z m -21.12016,0.02429 c -0.58632,0.132338 -1.17035,0.276712 -1.75079,0.433569 l -0.38293,0.10386 0.20723,0.76533 0.38292,-0.10335 c 0.3889,-0.10507 0.77971,-0.20476 1.1715,-0.29869 0.12748,-0.31431 0.24306,-0.59625 0.37207,-0.900719 z" />
    <path
       id="path41-6"
       style="display:inline;fill:none;stroke:#01020e;stroke-width:0.264583;stroke-linecap:square;stroke-linejoin:round;stroke-dasharray:none;stroke-opacity:1"
       d="m 173.68914,78.631856 a 2.059957,2.059957 0 0 0 -2.06034,2.059823 2.059957,2.059957 0 0 0 0.87902,1.687752 l -0.88677,3.499528 -2.76934,5.267379 a 0.39691468,0.39691468 0 0 0 0.10542,0.498161 l 1.77147,1.390612 v 2.87476 a 0.39691468,0.39691468 0 0 0 0.39274,0.396875 l 4.76146,0.04496 0.39636,0.0036 0.008,-0.792716 -0.39687,-0.0041 -4.36873,-0.04289 v -2.673738 a 0.39691468,0.39691468 0 0 0 -0.15037,-0.310576 l -1.66399,-1.306897 2.6386,-5.017265 a 0.39691468,0.39691468 0 0 0 0.0351,-0.08785 l 0.86352,-3.416329 a 2.059957,2.059957 0 0 0 0.44493,0.04857 2.059957,2.059957 0 0 0 0.46974,-0.05736 2.059957,2.059957 0 0 1 -0.0693,0.01809 l 2.38694,6.377389 a 0.39691468,0.39691468 0 0 0 0.0258,0.05891 l 1.09915,1.921846 a 0.39691468,0.39691468 0 0 0 0.68006,0.0155 l 1.07953,-1.704288 c -0.0338,-0.02888 -0.065,-0.06137 -0.0951,-0.09095 -0.0619,-0.06195 -0.11924,-0.127852 -0.17363,-0.19637 -0.0631,-0.05161 -0.12404,-0.105619 -0.18087,-0.164331 -0.0242,-0.02655 -0.0149,-0.01704 -0.0331,-0.03462 -0.0154,-0.0091 -0.0305,-0.01861 -0.045,-0.02945 h -5.2e-4 -5.1e-4 v -5.17e-4 l -5.2e-4,-5.17e-4 h -5.2e-4 v -5.16e-4 h -5.1e-4 c -0.0196,-0.0081 -0.0357,-0.02661 -0.0543,-0.03772 l -5.1e-4,-5.17e-4 h -5.2e-4 v -5.17e-4 h -5.2e-4 v -5.16e-4 h -5.1e-4 l -5.2e-4,-5.17e-4 -5.2e-4,-5.17e-4 -0.81132,1.281575 -0.75602,-1.322399 -2.38229,-6.372221 a 2.059957,2.059957 0 0 1 -0.0568,0.03256 2.059957,2.059957 0 0 0 0.98185,-1.751831 2.059957,2.059957 0 0 0 -2.05982,-2.059823 z m -17.39532,5.192448 a 2.3803945,2.3803945 0 0 0 -2.38073,2.380733 2.3803945,2.3803945 0 0 0 2.38073,2.380217 2.3803945,2.3803945 0 0 0 0.27699,-0.01602 l 3.09903,9.342582 0.12506,0.377238 0.75396,-0.250114 -0.12506,-0.376721 -3.09025,-9.316227 a 2.3803945,2.3803945 0 0 0 0.60616,-0.42168 l 6.19704,5.354712 a 0.39691468,0.39691468 0 0 0 0.63097,-0.156063 l 1.6583,-4.314982 a 1.9226264,1.9226264 0 0 0 1.7694,-1.916162 1.9226264,1.9226264 0 0 0 -1.92236,-1.92288 1.9226264,1.9226264 0 0 0 -1.92288,1.92288 1.9226264,1.9226264 0 0 0 1.26762,1.807642 l -1.38906,3.611149 -5.81412,-5.025016 a 2.3803945,2.3803945 0 0 0 0.25942,-1.080555 2.3803945,2.3803945 0 0 0 -2.38022,-2.380733 z m 34.69659,0.21084 a 2.3803945,2.3803945 0 0 0 -2.38022,2.380733 2.3803945,2.3803945 0 0 0 0.25942,1.080554 l -5.81412,5.025017 -1.38906,-3.611149 a 1.9226264,1.9226264 0 0 0 1.26762,-1.807642 1.9226264,1.9226264 0 0 0 -1.92288,-1.92288 1.9226264,1.9226264 0 0 0 -1.92236,1.92288 1.9226264,1.9226264 0 0 0 1.7694,1.916162 l 1.6583,4.314982 a 0.39691468,0.39691468 0 0 0 0.63097,0.156063 l 6.19704,-5.354712 a 2.3803945,2.3803945 0 0 0 0.60616,0.42168 l -3.09025,9.316227 -0.12506,0.376721 0.75396,0.250114 0.12506,-0.377238 3.09903,-9.342582 a 2.3803945,2.3803945 0 0 0 0.27699,0.01602 2.3803945,2.3803945 0 0 0 2.38073,-2.380217 2.3803945,2.3803945 0 0 0 -2.38073,-2.380733 z m -30.63896,7.281209 -0.73225,0.306442 0.15399,0.365352 2.10582,5.035351 a 0.39691468,0.39691468 0 0 0 0.40049,0.241846 l 3.68143,-0.326078 -0.0377,2.072742 c -1.70685,0.247183 -3.39775,0.596628 -5.06274,1.046452 l -0.38293,0.10386 0.20723,0.76533 0.38292,-0.10335 c 1.66965,-0.45108 3.3675,-0.79992 5.07979,-1.043347 4.47291,-0.635899 9.03819,-0.550642 13.53716,0.0021 2.12436,0.260947 4.2353,0.625397 6.32416,1.091917 l 0.38654,0.0858 0.17415,-0.77515 -0.38706,-0.0858 c -2.00515,-0.447826 -4.03188,-0.803225 -6.06991,-1.064018 l -0.0429,0.298173 h -0.001 l 0.0563,-0.392741 0.64079,-4.452958 1.4025,2.833935 a 0.39691468,0.39691468 0 0 0 0.23048,0.199471 l 1.7849,0.595313 a 0.39691468,0.39691468 0 0 0 0.49196,-0.226343 l 1.14463,-2.791044 0.15038,-0.36742 -0.73432,-0.302307 -0.15038,0.366903 -1.00407,2.449463 -1.27538,-0.423747 -1.89445,-3.835941 a 0.39691468,0.39691468 0 0 0 -0.34004,-0.222726 0.39691468,0.39691468 0 0 0 -0.40979,0.343648 l -0.82424,5.720582 -0.016,0.111104 c -2.12649,-0.245886 -4.26908,-0.386269 -6.41253,-0.396358 h -0.001 c -2.06736,-0.0097 -4.13559,0.102598 -6.18929,0.361218 l -0.004,0.217041 -0.006,0.396358 h -0.001 l 0.006,-0.396358 0.047,-2.609143 a 0.39691468,0.39691468 0 0 0 -0.43202,-0.40256 l -3.8318,0.340031 -1.99213,-4.767667 z" />
    <text
       xml:space="preserve"
       style="font-size:25.4px;font-family:'Robot Rocket';-inkscape-font-specification:'Robot Rocket, Normal';writing-mode:lr-tb;direction:ltr;fill:url(#linearGradient86);fill-opacity:1;stroke:none;stroke-width:0.79375;stroke-linecap:square;stroke-linejoin:round;stroke-dasharray:none;stroke-opacity:1"
       x="47.482204"
       y="134.40796"
       id="text85-2"><tspan
         id="tspan85-0"
         style="font-style:normal;font-variant:normal;font-weight:normal;font-stretch:normal;font-size:50.8px;font-family:exwayer;-inkscape-font-specification:'exwayer, Normal';font-variant-ligatures:normal;font-variant-caps:normal;font-variant-numeric:normal;font-variant-east-asian:normal;fill:url(#linearGradient86);stroke:none;stroke-width:0.79375;stroke-dasharray:none"
         x="47.482204"
         y="134.40796">COSRWA</tspan></text>
    <path
       id="text85"
       style="font-size:25.4px;font-family:'Robot Rocket';-inkscape-font-specification:'Robot Rocket, Normal';writing-mode:lr-tb;direction:ltr;fill:#303030;fill-opacity:1;stroke:none;stroke-width:0.79375;stroke-linecap:square;stroke-linejoin:round;stroke-dasharray:none;stroke-opacity:1"
       d="m 154.00972,104.28356 3.49023,8.18038 c 0.1907,0.0632 0.38141,0.12651 0.57206,0.19017 0.0934,-0.0269 0.18703,-0.0531 0.2806,-0.0796 l -3.53002,-8.29097 z m 8.68681,0 2.78484,6.54999 c 0.24195,-0.0534 0.48403,-0.10655 0.72606,-0.15968 l -2.69803,-6.39031 z m 52.86912,0.25373 c -0.47854,0.24425 -0.95096,0.50113 -1.42058,0.76223 h 3.92327 v 5.07773 c 0.003,-0.002 0.007,-0.004 0.0103,-0.006 0.23419,-0.18114 0.46806,-0.36273 0.70125,-0.54518 v -5.28857 h -3.21376 z m -103.36423,5.2e-4 c -2.91253,0 -5.16444,0.52471 -6.75618,1.57458 -1.1176,0.74507 -2.09992,1.93025 -2.94659,3.55585 -0.54186,1.2192 -0.88049,2.40491 -1.01596,3.55638 -0.1016,1.1176 -0.0172,2.11618 0.25374,2.99671 0.3048,0.88054 0.64342,1.6427 1.01595,2.28617 0.11501,0.1725 0.23447,0.33961 0.35761,0.50126 0.23312,-0.10972 0.46586,-0.21934 0.69918,-0.32866 -0.15413,-0.19725 -0.303,-0.40739 -0.447,-0.62994 -0.33867,-0.57573 -0.64323,-1.26976 -0.91416,-2.08256 -0.23707,-0.8128 -0.3052,-1.72698 -0.2036,-2.74298 0.1016,-1.04987 0.40667,-2.13388 0.91467,-3.25148 0.77893,-1.49014 1.67634,-2.57364 2.69234,-3.25097 1.45627,-0.94827 3.57293,-1.42265 6.35,-1.42265 h 6.38669 c -0.18422,-0.25272 -0.36713,-0.50642 -0.54777,-0.76171 z m 22.61051,0 c 0.19155,0.25365 0.38263,0.50762 0.57361,0.76171 h 7.29567 c 2.30294,0 4.26758,0.81301 5.89318,2.43861 0.80953,0.793 1.42145,1.67067 1.83607,2.63291 0.28276,0.0604 0.56465,0.12464 0.84594,0.19276 -0.44198,-1.23399 -1.16646,-2.3451 -2.17403,-3.33365 -1.76106,-1.79493 -3.89502,-2.69234 -6.40116,-2.69234 z m -76.048075,0.45785 c -0.707327,0.18234 -1.403001,0.41935 -2.086694,0.71055 -1.8288,0.74507 -3.437529,1.81179 -4.826062,3.20032 -0.252993,0.253 -0.495037,0.51037 -0.726054,0.77257 0.139785,0.21736 0.280051,0.4344 0.42168,0.6506 0.256089,-0.29446 0.526928,-0.5826 0.812353,-0.86454 2.151237,-2.15124 4.64781,-3.46948 7.489982,-3.95428 -0.361949,-0.17146 -0.723479,-0.34329 -1.085205,-0.51522 z m 36.063949,2.61638 c -0.2088,0.13908 -0.419277,0.27553 -0.630969,0.41031 0.249371,0.21463 0.493684,0.44149 0.732771,0.68058 2.3368,2.3368 3.505213,5.16479 3.505213,8.48372 v 3.94808 c 0.237197,-0.10479 0.474085,-0.20996 0.711068,-0.31523 v -3.63285 c 0,-3.52213 -1.236035,-6.51943 -3.708301,-8.9917 -0.199787,-0.20252 -0.403138,-0.39676 -0.609782,-0.58291 z m 15.849676,2.76727 c -0.9144,0 -1.69334,0.32185 -2.33681,0.96532 -0.64346,0.64346 -0.96531,1.42241 -0.96531,2.33681 0,0.88053 0.32185,1.6427 0.96531,2.28616 0.19453,0.19453 0.40135,0.35986 0.62064,0.49558 0.31042,-0.12076 0.6214,-0.23982 0.93327,-0.35657 -0.38673,-0.12067 -0.73521,-0.33627 -1.04593,-0.64699 -0.47413,-0.508 -0.71106,-1.10085 -0.71106,-1.77818 0,-0.7112 0.23693,-1.32083 0.71106,-1.82883 0.508,-0.508 1.11763,-0.76171 1.82883,-0.76171 h 11.48199 c -0.12833,-0.2358 -0.25378,-0.47316 -0.37672,-0.71159 z m 93.65372,0 c -0.48701,0.22642 -0.97175,0.45779 -1.45831,0.68523 -0.0183,0.009 -0.0365,0.0176 -0.0548,0.0264 h 9.40873 v 2.41949 c 0.23946,-0.10712 0.47719,-0.21794 0.71107,-0.33693 v -2.79415 z m -115.651858,0.76533 c -0.30345,0.16111 -0.607517,0.32096 -0.912089,0.48007 -0.0094,0.005 -0.01897,0.01 -0.02842,0.015 0.767939,0.17712 1.471526,0.51954 2.110465,1.02629 0.915174,0.72582 1.536375,1.62809 1.863453,2.70682 0.555395,0.49727 1.098251,1.00858 1.620056,1.54357 0.09827,0.11291 0.195112,0.227 0.290421,0.3421 0.02418,-0.1053 0.03617,-0.2137 0.03617,-0.32505 0,-0.33867 -0.118467,-0.64373 -0.355534,-0.91467 -0.2032,-0.27093 -0.474204,-0.42347 -0.81287,-0.45733 -0.3048,-1.38854 -1.032897,-2.53966 -2.184363,-3.45406 -0.507533,-0.41525 -1.049926,-0.73608 -1.627291,-0.96273 z m -30.487545,0.41341 c -0.07243,0.0343 -0.141525,0.0721 -0.21239,0.10801 0.071,-0.0356 0.141347,-0.0725 0.21239,-0.10801 z m 143.112713,0.28526 c -0.23761,0.12145 -0.47461,0.24422 -0.71107,0.36793 v 7.61246 c 0.1374,-0.10341 0.27438,-0.20744 0.41083,-0.31213 0.0999,-0.0717 0.19996,-0.14336 0.30024,-0.21446 z m 5.43584,3.31142 c -0.37253,0 -0.69438,0.13524 -0.96531,0.40618 -0.27094,0.27093 -0.4067,0.61007 -0.4067,1.01647 0,0.0922 0.008,0.18125 0.0248,0.26717 0.19581,-0.0898 0.39098,-0.18132 0.58549,-0.27388 -0.0183,0.0142 -0.0284,0.0218 -0.0305,0.0238 0.004,-0.002 0.0398,-0.025 0.11111,-0.0677 0.22409,-0.13415 0.44484,-0.26157 0.67179,-0.38964 0.0412,-0.0233 0.0829,-0.0456 0.12454,-0.0682 0.29561,-0.16524 0.59392,-0.32568 0.89039,-0.48938 -0.0437,-0.0417 -0.0912,-0.0817 -0.14211,-0.11989 -0.23707,-0.2032 -0.52485,-0.30489 -0.86352,-0.30489 z m -28.27321,0.12402 c -0.42988,0.11664 -0.86067,0.23084 -1.29191,0.34262 l 0.10077,0.14314 c -0.13547,0.2032 -0.20309,0.42336 -0.20309,0.66043 0,0.0118 2.5e-4,0.0234 5.2e-4,0.0351 0.45269,-0.40772 0.91754,-0.80163 1.39371,-1.18133 z m 16.99535,0.12248 c -0.23411,0.19802 -0.47157,0.39163 -0.71107,0.58291 v 6.1128 c 0.2375,-0.0358 0.47434,-0.0809 0.71107,-0.13436 z m -115.072565,0.17208 c -0.09457,0.43481 -0.141593,0.88802 -0.141593,1.35961 v 5.84202 c 0,1.45626 0.457093,2.74314 1.371493,3.86074 0.228733,0.27957 0.472302,0.53353 0.730704,0.76223 0.0599,-0.0175 0.120773,-0.0352 0.182935,-0.0532 0.229295,-0.0645 0.45734,-0.13174 0.684713,-0.20154 -0.381788,-0.28439 -0.728314,-0.62279 -1.03973,-1.01544 -0.778934,-0.98214 -1.168404,-2.09971 -1.168404,-3.35277 v -5.84202 c 0,-0.30896 0.02254,-0.60862 0.0677,-0.89866 -0.226282,-0.15817 -0.45582,-0.31155 -0.687814,-0.46095 z m -5.932971,2.02365 c -0.06895,0.0282 -0.137853,0.0568 -0.206705,0.0853 -0.167935,0.0674 -0.336058,0.13404 -0.504362,0.2005 v 4.63796 c 0,1.88288 0.353359,3.6158 1.059883,5.19865 0.287387,0.0548 0.57559,0.10506 0.864547,0.14934 -0.808755,-1.61261 -1.213363,-3.39547 -1.213363,-5.34799 z m 144.322976,1.36994 c -0.2361,0.16592 -0.47352,0.3304 -0.71159,0.49351 v 14.94741 h 0.71159 z m -84.27755,2.02985 c -0.33136,0 -0.62242,0.1071 -0.87333,0.32143 0.30788,-0.10673 0.61571,-0.21383 0.92346,-0.32091 -0.0167,-4.7e-4 -0.0332,-5.2e-4 -0.0501,-5.2e-4 z m 26.84694,0.48834 3.75947,8.81187 c 0.15233,-0.25789 0.30659,-0.51493 0.46198,-0.77101 l -3.29489,-7.73803 c -0.30905,-0.10002 -0.61805,-0.20112 -0.92656,-0.30283 z m -46.08504,0.52762 c -0.92175,0.29446 -1.83622,0.61168 -2.74867,0.93379 -0.0366,0.0135 -0.073,0.0272 -0.10955,0.0408 0.0589,0.13964 0.14316,0.27169 0.2527,0.39687 0.27093,0.27094 0.59278,0.4067 0.96531,0.4067 0.3048,0 0.57529,-0.10169 0.81236,-0.30489 0.23706,-0.2032 0.3896,-0.44014 0.45733,-0.71107 h 1.5751 c 0.7112,0 1.32031,0.25371 1.82831,0.76171 0.508,0.47413 0.76223,1.06698 0.76223,1.77818 0,0.59544 -0.1782,1.11951 -0.53433,1.57252 0.34472,-0.12483 0.68924,-0.25019 1.03352,-0.37621 0.0608,-0.15879 0.10852,-0.3232 0.14315,-0.49299 -0.1804,-0.33989 -0.32042,-0.72184 -0.42065,-1.15393 -0.0559,-0.24086 -0.0555,-0.49122 -0.0832,-0.73691 0.0198,-0.20496 0.0292,-0.41117 0.0465,-0.6165 -0.12423,-0.1868 -0.27046,-0.36451 -0.43873,-0.53278 -0.64347,-0.64347 -1.42241,-0.96532 -2.33681,-0.96532 z m 97.67363,0.58394 c -0.23655,0.13213 -0.47348,0.26351 -0.71107,0.39378 v 11.41739 h 0.71107 z m -68.69814,2.67994 c -0.23103,0.0858 -0.46191,0.17168 -0.69298,0.25735 2.50067,4.16523 4.12581,6.88615 4.87516,8.16281 h -7.26467 l -3.35277,-6.07663 c -0.22982,0.0804 -0.45942,0.16074 -0.68936,0.24081 l 3.58479,6.54689 h 9.04286 z m -94.343074,1.02578 c -0.222896,0.0914 -0.446074,0.18332 -0.668693,0.27544 0.677248,1.23628 1.551757,2.38995 2.623096,3.46128 1.388533,1.38854 2.997262,2.47255 4.826062,3.25149 1.8288,0.74506 3.742085,1.11724 5.740218,1.11724 H 71.1724 c -0.344783,-0.0876 -0.68812,-0.17893 -1.030428,-0.27337 -0.439889,-0.13982 -0.877991,-0.2856 -1.313615,-0.4377 h -6.410978 c -3.928533,0 -7.281234,-1.38857 -10.058301,-4.16564 -1.001435,-1.00143 -1.822067,-2.07758 -2.462382,-3.22874 z m 131.896864,1.1591 -2.38384,5.57486 -1.24488,-2.33578 c -0.11493,0.10717 -0.23068,0.21351 -0.34727,0.31885 -0.0665,0.0628 -0.13308,0.12575 -0.19947,0.18862 l 1.89342,3.55533 3.01946,-7.10447 c -0.10322,-0.0274 -0.20648,-0.0551 -0.30954,-0.0832 -0.14269,-0.038 -0.28526,-0.076 -0.42788,-0.11421 z m -79.7016,0.39326 v 5.01417 c 0.2372,-0.0871 0.4744,-0.17433 0.71158,-0.26149 v -4.04161 h 11.04688 c 0.66046,-0.23796 1.32184,-0.47451 1.98282,-0.71107 z m 99.21255,0.74466 c -0.23955,0.21447 -0.47666,0.43157 -0.71107,0.65164 v 4.44572 h -3.81527 c -0.15547,0.23454 -0.30684,0.4718 -0.45527,0.71107 h 4.98161 z m -72.84723,2.37763 c -0.23705,0.0907 -0.47405,0.18154 -0.71107,0.27234 v 3.15846 h 0.71107 z m -34.929138,1.2454 c -2.040209,1.52492 -4.401171,2.2872 -7.082255,2.2872 -0.638515,0 -1.26,-0.044 -1.863969,-0.13229 -0.01607,0.005 -0.03198,0.009 -0.04806,0.0134 -0.632381,0.1772 -1.0081,0.29106 -1.469161,0.40307 1.070526,0.28464 2.197588,0.42685 3.381189,0.42685 2.773962,0 5.222513,-0.76664 7.345288,-2.30012 -0.08563,-0.23355 -0.173258,-0.4662 -0.263033,-0.69815 z" />
    <text
       xml:space="preserve"
       style="font-size:25.4px;font-family:'Robot Rocket';-inkscape-font-specification:'Robot Rocket, Normal';writing-mode:lr-tb;direction:ltr;fill:none;fill-opacity:1;stroke:#01020e;stroke-width:0.264583;stroke-linecap:square;stroke-linejoin:round;stroke-dasharray:none;stroke-opacity:1"
       x="47.482204"
       y="134.40796"
       id="text85-8"><tspan
         id="tspan85-8"
         style="font-style:normal;font-variant:normal;font-weight:normal;font-stretch:normal;font-size:50.8px;font-family:exwayer;-inkscape-font-specification:'exwayer, Normal';font-variant-ligatures:normal;font-variant-caps:normal;font-variant-numeric:normal;font-variant-east-asian:normal;fill:none;fill-opacity:1;stroke:#01020e;stroke-width:0.264583;stroke-dasharray:none;stroke-opacity:1"
         x="47.482204"
         y="134.40796">COSRWA</tspan></text>
  </g>
</svg>
