<?xml version="1.0" encoding="UTF-8" standalone="no"?>
<!-- Created with Inkscape (http://www.inkscape.org/) -->

<svg
   width="171.56216mm"
   height="51.237904mm"
   viewBox="0 0 171.56216 51.237903"
   version="1.1"
   id="svg1"
   inkscape:version="1.4.3 (0d15f75042, 2025-12-25)"
   sodipodi:docname="CosRwa_Logo_src.svg"
   inkscape:export-filename="CosRwa_Logo.webp"
   inkscape:export-xdpi="96"
   inkscape:export-ydpi="96"
   xmlns:inkscape="http://www.inkscape.org/namespaces/inkscape"
   xmlns:sodipodi="http://sodipodi.sourceforge.net/DTD/sodipodi-0.dtd"
   xmlns:xlink="http://www.w3.org/1999/xlink"
   xmlns="http://www.w3.org/2000/svg"
   xmlns:svg="http://www.w3.org/2000/svg">
  <sodipodi:namedview
     id="namedview1"
     pagecolor="#ffffff"
     bordercolor="#000000"
     borderopacity="0.25"
     inkscape:showpageshadow="2"
     inkscape:pageopacity="0.0"
     inkscape:pagecheckerboard="0"
     inkscape:deskcolor="#d1d1d1"
     inkscape:document-units="mm"
     inkscape:zoom="1.4142136"
     inkscape:cx="311.12698"
     inkscape:cy="-41.365746"
     inkscape:window-width="2560"
     inkscape:window-height="1020"
     inkscape:window-x="0"
     inkscape:window-y="0"
     inkscape:window-maximized="1"
     inkscape:current-layer="layer1" />
  <defs
     id="defs1">
    <inkscape:path-effect
       effect="bspline"
       id="path-effect18"
       is_visible="true"
       lpeversion="1.3"
       weight="33.333333"
       steps="2"
       helper_size="0"
       apply_no_weight="true"
       apply_with_weight="true"
       only_selected="false"
       uniform="false" />
    <inkscape:path-effect
       effect="bspline"
       id="path-effect17"
       is_visible="true"
       lpeversion="1.3"
       weight="33.333333"
       steps="2"
       helper_size="0"
       apply_no_weight="true"
       apply_with_weight="true"
       only_selected="false"
       uniform="false" />
    <inkscape:path-effect
       effect="bspline"
       id="path-effect13"
       is_visible="true"
       lpeversion="1.3"
       weight="33.333333"
       steps="2"
       helper_size="0"
       apply_no_weight="true"
       apply_with_weight="true"
       only_selected="false"
       uniform="false" />
    <inkscape:path-effect
       effect="bspline"
       id="path-effect11"
       is_visible="true"
       lpeversion="1.3"
       weight="33.333333"
       steps="2"
       helper_size="0"
       apply_no_weight="true"
       apply_with_weight="true"
       only_selected="false"
       uniform="false" />
    <inkscape:path-effect
       effect="spiro"
       id="path-effect9"
       is_visible="true"
       lpeversion="1" />
    <inkscape:path-effect
       effect="spiro"
       id="path-effect8"
       is_visible="true"
       lpeversion="1" />
    <inkscape:path-effect
       effect="spiro"
       id="path-effect1"
       is_visible="true"
       lpeversion="1" />
    <linearGradient
       id="linearGradient183"
       inkscape:collect="always">
      <stop
         style="stop-color:#197c98;stop-opacity:1;"
         offset="0"
         id="stop179" />
      <stop
         style="stop-color:#22888f;stop-opacity:1;"
         offset="0.26135886"
         id="stop180" />
      <stop
         style="stop-color:#f2fb00;stop-opacity:1;"
         offset="0.49354619"
         id="stop181" />
      <stop
         style="stop-color:#67cc56;stop-opacity:1;"
         offset="0.67136145"
         id="stop182" />
      <stop
         style="stop-color:#5fd35b;stop-opacity:1;"
         offset="1"
         id="stop183" />
    </linearGradient>
    <filter
       style="color-interpolation-filters:sRGB"
       inkscape:label="Drop Shadow"
       id="filter175"
       x="-0.0077776425"
       y="-0.043277577"
       width="1.0184742"
       height="1.1027969">
      <feFlood
         result="flood"
         in="SourceGraphic"
         flood-opacity="0.498039"
         flood-color="rgb(93,61,244)"
         id="feFlood174" />
      <feGaussianBlur
         result="blur"
         in="SourceGraphic"
         stdDeviation="0.500000"
         id="feGaussianBlur174" />
      <feOffset
         result="offset"
         in="blur"
         dx="0.500000"
         dy="0.500000"
         id="feOffset174" />
      <feComposite
         result="comp1"
         operator="in"
         in="flood"
         in2="offset"
         id="feComposite174" />
      <feComposite
         result="comp2"
         operator="over"
         in="SourceGraphic"
         in2="comp1"
         id="feComposite175" />
    </filter>
    <linearGradient
       inkscape:collect="always"
       xlink:href="#linearGradient183"
       id="linearGradient86"
       x1="47.085327"
       y1="119.77755"
       x2="219.17665"
       y2="119.77755"
       gradientUnits="userSpaceOnUse" />
    <inkscape:path-effect
       effect="bspline"
       id="path-effect17-9"
       is_visible="true"
       lpeversion="1.3"
       weight="33.333333"
       steps="2"
       helper_size="0"
       apply_no_weight="true"
       apply_with_weight="true"
       only_selected="false"
       uniform="false" />
    <linearGradient
       inkscape:collect="always"
       xlink:href="#linearGradient183"
       id="linearGradient53"
       x1="156.91083"
       y1="93.205826"
       x2="188.33568"
       y2="93.205826"
       gradientUnits="userSpaceOnUse" />
  </defs>
  <g
     inkscape:label="Layer 1"
     inkscape:groupmode="layer"
     id="layer1"
     transform="translate(-47.349913,-84.165957)">
    <text
       xml:space="preserve"
       style="font-size:25.4px;font-family:'Robot Rocket';-inkscape-font-specification:'Robot Rocket, Normal';writing-mode:lr-tb;direction:ltr;fill:url(#linearGradient86);fill-opacity:1;stroke:none;stroke-width:0.79375;stroke-linecap:square;stroke-linejoin:round;stroke-dasharray:none;stroke-opacity:1"
       x="47.482204"
       y="134.40796"
       id="text85-2"><tspan
         sodipodi:role="line"
         id="tspan85-0"
         style="font-style:normal;font-variant:normal;font-weight:normal;font-stretch:normal;font-size:50.8px;font-family:exwayer;-inkscape-font-specification:'exwayer, Normal';font-variant-ligatures:normal;font-variant-caps:normal;font-variant-numeric:normal;font-variant-east-asian:normal;fill:url(#linearGradient86);stroke:none;stroke-width:0.79375;stroke-dasharray:none"
         x="47.482204"
         y="134.40796">COSRWA</tspan></text>
    <path
       id="text85"
       style="font-size:25.4px;font-family:'Robot Rocket';-inkscape-font-specification:'Robot Rocket, Normal';writing-mode:lr-tb;direction:ltr;fill:#303030;fill-opacity:1;stroke:none;stroke-width:0.79375;stroke-linecap:square;stroke-linejoin:round;stroke-dasharray:none;stroke-opacity:1"
       d="m 154.00972,104.28356 3.49023,8.18038 c 0.1907,0.0632 0.38141,0.12651 0.57206,0.19017 0.0934,-0.0269 0.18703,-0.0531 0.2806,-0.0796 l -3.53002,-8.29097 z m 8.68681,0 2.78484,6.54999 c 0.24195,-0.0534 0.48403,-0.10655 0.72606,-0.15968 l -2.69803,-6.39031 z m 52.86912,0.25373 c -0.47854,0.24425 -0.95096,0.50113 -1.42058,0.76223 h 3.92327 v 5.07773 c 0.003,-0.002 0.007,-0.004 0.0103,-0.006 0.23419,-0.18114 0.46806,-0.36273 0.70125,-0.54518 v -5.28857 h -3.21376 z m -103.36423,5.2e-4 c -2.91253,0 -5.16444,0.52471 -6.75618,1.57458 -1.1176,0.74507 -2.09992,1.93025 -2.94659,3.55585 -0.54186,1.2192 -0.88049,2.40491 -1.01596,3.55638 -0.1016,1.1176 -0.0172,2.11618 0.25374,2.99671 0.3048,0.88054 0.64342,1.6427 1.01595,2.28617 0.11501,0.1725 0.23447,0.33961 0.35761,0.50126 0.23312,-0.10972 0.46586,-0.21934 0.69918,-0.32866 -0.15413,-0.19725 -0.303,-0.40739 -0.447,-0.62994 -0.33867,-0.57573 -0.64323,-1.26976 -0.91416,-2.08256 -0.23707,-0.8128 -0.3052,-1.72698 -0.2036,-2.74298 0.1016,-1.04987 0.40667,-2.13388 0.91467,-3.25148 0.77893,-1.49014 1.67634,-2.57364 2.69234,-3.25097 1.45627,-0.94827 3.57293,-1.42265 6.35,-1.42265 h 6.38669 c -0.18422,-0.25272 -0.36713,-0.50642 -0.54777,-0.76171 z m 22.61051,0 c 0.19155,0.25365 0.38263,0.50762 0.57361,0.76171 h 7.29567 c 2.30294,0 4.26758,0.81301 5.89318,2.43861 0.80953,0.793 1.42145,1.67067 1.83607,2.63291 0.28276,0.0604 0.56465,0.12464 0.84594,0.19276 -0.44198,-1.23399 -1.16646,-2.3451 -2.17403,-3.33365 -1.76106,-1.79493 -3.89502,-2.69234 -6.40116,-2.69234 z m -76.048075,0.45785 c -0.707327,0.18234 -1.403001,0.41935 -2.086694,0.71055 -1.8288,0.74507 -3.437529,1.81179 -4.826062,3.20032 -0.252993,0.253 -0.495037,0.51037 -0.726054,0.77257 0.139785,0.21736 0.280051,0.4344 0.42168,0.6506 0.256089,-0.29446 0.526928,-0.5826 0.812353,-0.86454 2.151237,-2.15124 4.64781,-3.46948 7.489982,-3.95428 -0.361949,-0.17146 -0.723479,-0.34329 -1.085205,-0.51522 z m 36.063949,2.61638 c -0.2088,0.13908 -0.419277,0.27553 -0.630969,0.41031 0.249371,0.21463 0.493684,0.44149 0.732771,0.68058 2.3368,2.3368 3.505213,5.16479 3.505213,8.48372 v 3.94808 c 0.237197,-0.10479 0.474085,-0.20996 0.711068,-0.31523 v -3.63285 c 0,-3.52213 -1.236035,-6.51943 -3.708301,-8.9917 -0.199787,-0.20252 -0.403138,-0.39676 -0.609782,-0.58291 z m 15.849676,2.76727 c -0.9144,0 -1.69334,0.32185 -2.33681,0.96532 -0.64346,0.64346 -0.96531,1.42241 -0.96531,2.33681 0,0.88053 0.32185,1.6427 0.96531,2.28616 0.19453,0.19453 0.40135,0.35986 0.62064,0.49558 0.31042,-0.12076 0.6214,-0.23982 0.93327,-0.35657 -0.38673,-0.12067 -0.73521,-0.33627 -1.04593,-0.64699 -0.47413,-0.508 -0.71106,-1.10085 -0.71106,-1.77818 0,-0.7112 0.23693,-1.32083 0.71106,-1.82883 0.508,-0.508 1.11763,-0.76171 1.82883,-0.76171 h 11.48199 c -0.12833,-0.2358 -0.25378,-0.47316 -0.37672,-0.71159 z m 93.65372,0 c -0.48701,0.22642 -0.97175,0.45779 -1.45831,0.68523 -0.0183,0.009 -0.0365,0.0176 -0.0548,0.0264 h 9.40873 v 2.41949 c 0.23946,-0.10712 0.47719,-0.21794 0.71107,-0.33693 v -2.79415 z m -115.651858,0.76533 c -0.30345,0.16111 -0.607517,0.32096 -0.912089,0.48007 -0.0094,0.005 -0.01897,0.01 -0.02842,0.015 0.767939,0.17712 1.471526,0.51954 2.110465,1.02629 0.915174,0.72582 1.536375,1.62809 1.863453,2.70682 0.555395,0.49727 1.098251,1.00858 1.620056,1.54357 0.09827,0.11291 0.195112,0.227 0.290421,0.3421 0.02418,-0.1053 0.03617,-0.2137 0.03617,-0.32505 0,-0.33867 -0.118467,-0.64373 -0.355534,-0.91467 -0.2032,-0.27093 -0.474204,-0.42347 -0.81287,-0.45733 -0.3048,-1.38854 -1.032897,-2.53966 -2.184363,-3.45406 -0.507533,-0.41525 -1.049926,-0.73608 -1.627291,-0.96273 z m -30.487545,0.41341 c -0.07243,0.0343 -0.141525,0.0721 -0.21239,0.10801 0.071,-0.0356 0.141347,-0.0725 0.21239,-0.10801 z m 143.112713,0.28526 c -0.23761,0.12145 -0.47461,0.24422 -0.71107,0.36793 v 7.61246 c 0.1374,-0.10341 0.27438,-0.20744 0.41083,-0.31213 0.0999,-0.0717 0.19996,-0.14336 0.30024,-0.21446 z m 5.43584,3.31142 c -0.37253,0 -0.69438,0.13524 -0.96531,0.40618 -0.27094,0.27093 -0.4067,0.61007 -0.4067,1.01647 0,0.0922 0.008,0.18125 0.0248,0.26717 0.19581,-0.0898 0.39098,-0.18132 0.58549,-0.27388 -0.0183,0.0142 -0.0284,0.0218 -0.0305,0.0238 0.004,-0.002 0.0398,-0.025 0.11111,-0.0677 0.22409,-0.13415 0.44484,-0.26157 0.67179,-0.38964 0.0412,-0.0233 0.0829,-0.0456 0.12454,-0.0682 0.29561,-0.16524 0.59392,-0.32568 0.89039,-0.48938 -0.0437,-0.0417 -0.0912,-0.0817 -0.14211,-0.11989 -0.23707,-0.2032 -0.52485,-0.30489 -0.86352,-0.30489 z m -28.27321,0.12402 c -0.42988,0.11664 -0.86067,0.23084 -1.29191,0.34262 l 0.10077,0.14314 c -0.13547,0.2032 -0.20309,0.42336 -0.20309,0.66043 0,0.0118 2.5e-4,0.0234 5.2e-4,0.0351 0.45269,-0.40772 0.91754,-0.80163 1.39371,-1.18133 z m 16.99535,0.12248 c -0.23411,0.19802 -0.47157,0.39163 -0.71107,0.58291 v 6.1128 c 0.2375,-0.0358 0.47434,-0.0809 0.71107,-0.13436 z m -115.072565,0.17208 c -0.09457,0.43481 -0.141593,0.88802 -0.141593,1.35961 v 5.84202 c 0,1.45626 0.457093,2.74314 1.371493,3.86074 0.228733,0.27957 0.472302,0.53353 0.730704,0.76223 0.0599,-0.0175 0.120773,-0.0352 0.182935,-0.0532 0.229295,-0.0645 0.45734,-0.13174 0.684713,-0.20154 -0.381788,-0.28439 -0.728314,-0.62279 -1.03973,-1.01544 -0.778934,-0.98214 -1.168404,-2.09971 -1.168404,-3.35277 v -5.84202 c 0,-0.30896 0.02254,-0.60862 0.0677,-0.89866 -0.226282,-0.15817 -0.45582,-0.31155 -0.687814,-0.46095 z m -5.932971,2.02365 c -0.06895,0.0282 -0.137853,0.0568 -0.206705,0.0853 -0.167935,0.0674 -0.336058,0.13404 -0.504362,0.2005 v 4.63796 c 0,1.88288 0.353359,3.6158 1.059883,5.19865 0.287387,0.0548 0.57559,0.10506 0.864547,0.14934 -0.808755,-1.61261 -1.213363,-3.39547 -1.213363,-5.34799 z m 144.322976,1.36994 c -0.2361,0.16592 -0.47352,0.3304 -0.71159,0.49351 v 14.94741 h 0.71159 z m -84.27755,2.02985 c -0.33136,0 -0.62242,0.1071 -0.87333,0.32143 0.30788,-0.10673 0.61571,-0.21383 0.92346,-0.32091 -0.0167,-4.7e-4 -0.0332,-5.2e-4 -0.0501,-5.2e-4 z m 26.84694,0.48834 3.75947,8.81187 c 0.15233,-0.25789 0.30659,-0.51493 0.46198,-0.77101 l -3.29489,-7.73803 c -0.30905,-0.10002 -0.61805,-0.20112 -0.92656,-0.30283 z m -46.08504,0.52762 c -0.92175,0.29446 -1.83622,0.61168 -2.74867,0.93379 -0.0366,0.0135 -0.073,0.0272 -0.10955,0.0408 0.0589,0.13964 0.14316,0.27169 0.2527,0.39687 0.27093,0.27094 0.59278,0.4067 0.96531,0.4067 0.3048,0 0.57529,-0.10169 0.81236,-0.30489 0.23706,-0.2032 0.3896,-0.44014 0.45733,-0.71107 h 1.5751 c 0.7112,0 1.32031,0.25371 1.82831,0.76171 0.508,0.47413 0.76223,1.06698 0.76223,1.77818 0,0.59544 -0.1782,1.11951 -0.53433,1.57252 0.34472,-0.12483 0.68924,-0.25019 1.03352,-0.37621 0.0608,-0.15879 0.10852,-0.3232 0.14315,-0.49299 -0.1804,-0.33989 -0.32042,-0.72184 -0.42065,-1.15393 -0.0559,-0.24086 -0.0555,-0.49122 -0.0832,-0.73691 0.0198,-0.20496 0.0292,-0.41117 0.0465,-0.6165 -0.12423,-0.1868 -0.27046,-0.36451 -0.43873,-0.53278 -0.64347,-0.64347 -1.42241,-0.96532 -2.33681,-0.96532 z m 97.67363,0.58394 c -0.23655,0.13213 -0.47348,0.26351 -0.71107,0.39378 v 11.41739 h 0.71107 z m -68.69814,2.67994 c -0.23103,0.0858 -0.46191,0.17168 -0.69298,0.25735 2.50067,4.16523 4.12581,6.88615 4.87516,8.16281 h -7.26467 l -3.35277,-6.07663 c -0.22982,0.0804 -0.45942,0.16074 -0.68936,0.24081 l 3.58479,6.54689 h 9.04286 z m -94.343074,1.02578 c -0.222896,0.0914 -0.446074,0.18332 -0.668693,0.27544 0.677248,1.23628 1.551757,2.38995 2.623096,3.46128 1.388533,1.38854 2.997262,2.47255 4.826062,3.25149 1.8288,0.74506 3.742085,1.11724 5.740218,1.11724 H 71.1724 c -0.344783,-0.0876 -0.68812,-0.17893 -1.030428,-0.27337 -0.439889,-0.13982 -0.877991,-0.2856 -1.313615,-0.4377 h -6.410978 c -3.928533,0 -7.281234,-1.38857 -10.058301,-4.16564 -1.001435,-1.00143 -1.822067,-2.07758 -2.462382,-3.22874 z m 131.896864,1.1591 -2.38384,5.57486 -1.24488,-2.33578 c -0.11493,0.10717 -0.23068,0.21351 -0.34727,0.31885 -0.0665,0.0628 -0.13308,0.12575 -0.19947,0.18862 l 1.89342,3.55533 3.01946,-7.10447 c -0.10322,-0.0274 -0.20648,-0.0551 -0.30954,-0.0832 -0.14269,-0.038 -0.28526,-0.076 -0.42788,-0.11421 z m -79.7016,0.39326 v 5.01417 c 0.2372,-0.0871 0.4744,-0.17433 0.71158,-0.26149 v -4.04161 h 11.04688 c 0.66046,-0.23796 1.32184,-0.47451 1.98282,-0.71107 z m 99.21255,0.74466 c -0.23955,0.21447 -0.47666,0.43157 -0.71107,0.65164 v 4.44572 h -3.81527 c -0.15547,0.23454 -0.30684,0.4718 -0.45527,0.71107 h 4.98161 z m -72.84723,2.37763 c -0.23705,0.0907 -0.47405,0.18154 -0.71107,0.27234 v 3.15846 h 0.71107 z m -34.929138,1.2454 c -2.040209,1.52492 -4.401171,2.2872 -7.082255,2.2872 -0.638515,0 -1.26,-0.044 -1.863969,-0.13229 -0.01607,0.005 -0.03198,0.009 -0.04806,0.0134 -0.632381,0.1772 -1.0081,0.29106 -1.469161,0.40307 1.070526,0.28464 2.197588,0.42685 3.381189,0.42685 2.773962,0 5.222513,-0.76664 7.345288,-2.30012 -0.08563,-0.23355 -0.173258,-0.4662 -0.263033,-0.69815 z" />
    <text
       xml:space="preserve"
       style="font-size:25.4px;font-family:'Robot Rocket';-inkscape-font-specification:'Robot Rocket, Normal';writing-mode:lr-tb;direction:ltr;fill:none;fill-opacity:1;stroke:#01020e;stroke-width:0.264583;stroke-linecap:square;stroke-linejoin:round;stroke-dasharray:none;stroke-opacity:1"
       x="47.482204"
       y="134.40796"
       id="text85-8"><tspan
         sodipodi:role="line"
         id="tspan85-8"
         style="font-style:normal;font-variant:normal;font-weight:normal;font-stretch:normal;font-size:50.8px;font-family:exwayer;-inkscape-font-specification:'exwayer, Normal';font-variant-ligatures:normal;font-variant-caps:normal;font-variant-numeric:normal;font-variant-east-asian:normal;fill:none;fill-opacity:1;stroke:#01020e;stroke-width:0.264583;stroke-dasharray:none;stroke-opacity:1"
         x="47.482204"
         y="134.40796">COSRWA</tspan></text>
    <path
       id="path44-5"
       style="baseline-shift:baseline;display:inline;overflow:visible;vector-effect:none;fill:url(#linearGradient53);stroke-width:0.787758;stroke-linecap:square;stroke-linejoin:round;enable-background:accumulate;stop-color:#000000"
       d="m 172.48918,84.298252 a 1.9472975,1.9472975 0 0 0 -1.9475,1.947089 1.9472975,1.9472975 0 0 0 1.17078,1.785883 l -0.003,0.0053 c -0.61197,0.985962 -1.20312,1.926306 -2.0338,2.584584 -0.83068,0.658278 -2.07354,1.106184 -2.84634,2.188085 -0.20855,0.291981 -0.37265,0.617523 -0.49583,0.962756 l 0.0871,-0.08712 a 0.41689708,0.41689708 0 0 1 0.29473,-0.122126 0.41689708,0.41689708 0 0 1 0.29514,0.122126 l 0.1494,0.1494 c 0.0859,-0.20803 0.18905,-0.39984 0.30938,-0.568291 0.58718,-0.822035 1.72446,-1.258005 2.69572,-2.027692 0.88931,-0.704739 1.49292,-1.628435 2.05823,-2.536142 v 4.117665 l 0.0928,-0.09282 a 0.41689708,0.41689708 0 0 1 0.29473,-0.122126 0.41689708,0.41689708 0 0 1 0.29514,0.122126 l 0.10502,0.105028 v -4.23613 c 0.58467,0.941426 1.20061,1.91018 2.12458,2.642391 0.97127,0.769687 2.10854,1.205657 2.69572,2.027692 0.14987,0.209797 0.27319,0.455793 0.36963,0.724205 l 0.15796,-0.15795 a 0.41689708,0.41689708 0 0 1 0.29473,-0.122125 0.41689708,0.41689708 0 0 1 0.29513,0.122125 l 0.059,0.05903 c -0.1268,-0.389474 -0.30414,-0.756678 -0.53654,-1.082032 -0.7728,-1.081901 -2.01566,-1.529807 -2.84634,-2.188085 -0.83067,-0.658278 -1.42223,-1.598622 -2.0342,-2.584584 l -0.0818,-0.131896 a 1.9472975,1.9472975 0 0 0 0.92774,-1.65928 1.9472975,1.9472975 0 0 0 -1.94708,-1.947089 z m -13.5592,4.182801 a 2.0194197,2.0194197 0 0 0 -2.01915,2.019551 2.0194197,2.0194197 0 0 0 2.01915,2.019551 2.0194197,2.0194197 0 0 0 0.19215,-0.0114 2.0194197,2.0194197 0 0 1 -0.0395,0.0057 l 1.20945,3.904764 0.55526,-0.87035 -1.00591,-3.246098 a 2.0194197,2.0194197 0 0 0 0.36678,-0.242623 2.0194197,2.0194197 0 0 1 -0.0643,0.05455 l 0.0997,-0.05333 1.87423,1.686962 c -0.1122,0.398746 -0.23557,0.843902 -0.26624,1.348674 l 0.80888,0.515777 c -0.0687,-0.586888 0.0673,-1.056105 0.22471,-1.615722 l 0.0725,-0.254428 v -4.07e-4 l 0.0863,-0.163649 c 0.33999,-0.645973 0.66581,-1.25504 1.12478,-1.729298 0.38538,-0.398224 0.90555,-0.741866 1.4651,-1.083255 h 4.1e-4 a 1.0709591,1.0709591 0 0 0 0.07,0.0024 1.0709591,1.0709591 0 0 0 1.07063,-1.071041 1.0709591,1.0709591 0 0 0 -1.07063,-1.071042 1.0709591,1.0709591 0 0 0 -1.07105,1.071042 1.0709591,1.0709591 0 0 0 0.20722,0.633018 c -0.4428,0.282829 -0.87187,0.592618 -1.23796,0.970898 -0.49921,0.515853 -0.83483,1.114375 -1.14228,1.695103 l -1.73825,-1.564836 a 2.0194197,2.0194197 0 0 0 0.22756,-0.931004 2.0194197,2.0194197 0 0 0 -2.01955,-2.019551 z m 27.38666,0 a 2.0194197,2.0194197 0 0 0 -2.01954,2.019551 2.0194197,2.0194197 0 0 0 0.22756,0.931004 l -1.77327,1.596589 c -0.31204,-0.590625 -0.65065,-1.201599 -1.15897,-1.726856 -0.36609,-0.37828 -0.79516,-0.688069 -1.23795,-0.970898 a 1.0709591,1.0709591 0 0 0 0.20721,-0.633018 1.0709591,1.0709591 0 0 0 -1.07104,-1.071042 1.0709591,1.0709591 0 0 0 -1.07063,1.071042 1.0709591,1.0709591 0 0 0 1.07063,1.071041 1.0709591,1.0709591 0 0 0 0.07,-0.0024 h 4.1e-4 c 0.55955,0.341389 1.0797,0.685031 1.46509,1.083255 0.45897,0.474258 0.78479,1.083325 1.12478,1.729298 l 0.18319,0.347652 0.006,-0.0033 0.0212,0.07409 c 0.15362,0.546022 0.28705,1.00621 0.2296,1.573385 l 0.80156,-0.510892 v -4.07e-4 c -0.0344,-0.489129 -0.15443,-0.922118 -0.2638,-1.310815 l 1.87423,-1.686962 0.0997,0.05333 a 2.0194197,2.0194197 0 0 1 -0.0643,-0.05455 2.0194197,2.0194197 0 0 0 0.36678,0.242623 l -1.02585,3.311233 0.55485,0.869941 1.22981,-3.96949 a 2.0194197,2.0194197 0 0 1 -0.0395,-0.0057 2.0194197,2.0194197 0 0 0 0.19214,0.0114 2.0194197,2.0194197 0 0 0 2.01915,-2.019551 2.0194197,2.0194197 0 0 0 -2.01915,-2.019551 z m -13.70615,5.130497 -0.38754,0.387546 v 1.581119 l 0.38876,0.388767 0.39894,-0.398944 v -1.558323 z m -5.89541,0.957872 -0.66396,0.663956 c -0.0184,0.361259 -0.002,0.723414 0.0448,1.073078 l 0.62039,0.620398 0.24913,-0.249137 c -0.01,-0.03944 -0.0187,-0.07924 -0.0273,-0.119276 -0.12036,-0.561698 -0.13183,-1.200499 -0.0342,-1.800131 z m 11.93819,0.147365 -0.23041,0.230411 c 0.0671,0.54325 0.0467,1.108129 -0.0611,1.611243 -0.013,0.06079 -0.0272,0.120891 -0.0427,0.18034 l 0.33544,0.335437 0.50763,-0.507635 c 0.0739,-0.40249 0.10586,-0.8263 0.0904,-1.250566 z m 4.67048,1.375542 -1.10889,0.707107 c -0.006,0.01375 -0.0133,0.02773 -0.02,0.04152 l 0.51701,0.810507 c 0.2486,-0.443533 0.44066,-0.901226 0.5577,-1.333204 0.0207,-0.07643 0.0387,-0.151725 0.0541,-0.225932 z m -21.39111,0.04559 c 0.0132,0.05948 0.0279,0.119454 0.0444,0.180339 0.11252,0.415266 0.29446,0.854132 0.52922,1.281505 l 0.49705,-0.779162 z m -0.76207,0.454714 -0.46936,0.736011 0.86913,0.55445 z m 22.88553,0.06473 -0.36475,1.176884 0.7926,-0.5056 z m -11.04545,0.092 -0.10421,0.104214 a 0.41689708,0.41689708 0 0 1 -0.58946,0 l -0.094,-0.09404 v 2.460419 c -1.21059,0.0349 -2.40583,0.2036 -3.58277,0.422147 l -0.15591,-0.209237 c -0.46179,-0.623421 -0.90152,-1.223143 -1.20944,-1.885212 l -0.2638,0.263792 a 0.41689708,0.41689708 0 0 1 -0.43884,0.09648 c 0.33067,0.704481 0.77725,1.31513 1.21149,1.901497 -0.10001,0.0204 -0.1999,0.0411 -0.29962,0.0619 -0.0586,0.0122 -0.1173,0.0243 -0.17586,0.0366 l -0.37411,-0.10422 c -0.93994,-0.26238 -1.80963,-0.512407 -2.55038,-1.156933 -0.31979,-0.27824 -0.62752,-0.647189 -0.89153,-1.042138 l -0.49094,0.769799 v 4.06e-4 c 0.26283,0.356802 0.55952,0.686439 0.87849,0.963979 0.58969,0.513087 1.22807,0.799694 1.86323,1.016084 -0.0631,-0.0215 -0.12457,-0.0346 -0.18767,-0.0578 -1.15056,0.26844 -2.29522,0.56143 -3.43336,0.8789 l -0.37981,0.10625 0.2121,0.7584 0.37859,-0.10624 c 1.57479,-0.43928 3.16397,-0.83051 4.76249,-1.17445 l 0.0203,0.006 0.002,-0.0106 c 0.17568,-0.0378 0.35169,-0.0749 0.52759,-0.11154 1.72609,-0.35924 3.45643,-0.658987 5.18015,-0.64157 1.87296,0.0189 3.74343,0.412 5.61005,0.85529 1.49285,0.35452 2.97921,0.73746 4.45718,1.14961 l 0.37981,0.10625 0.21087,-0.75881 -0.37981,-0.10625 c -1.16199,-0.32403 -2.32833,-0.63112 -3.49931,-0.92002 0.60163,-0.21317 1.2039,-0.503367 1.76228,-0.989214 0.30566,-0.26596 0.59094,-0.579888 0.84552,-0.919605 l -0.48973,-0.768044 c -0.25682,0.377226 -0.55266,0.728111 -0.85977,0.995324 -0.74075,0.644525 -1.61045,0.894552 -2.55039,1.156932 l -0.38836,0.10829 0.004,0.0163 c -0.14256,-0.0326 -0.28556,-0.0646 -0.42866,-0.0961 -0.0173,0.0233 -0.0345,0.0464 -0.0517,0.0696 0.41957,-0.566437 0.85686,-1.152575 1.1952,-1.8213 a 0.41689708,0.41689708 0 0 1 -0.28333,-0.121719 l -0.35905,-0.359049 c -0.30665,0.641579 -0.73575,1.226026 -1.18544,1.833101 l -0.16446,0.221457 c -1.1943,-0.236187 -2.40782,-0.410427 -3.64016,-0.437207 z m 11.32675,1.66213 -1.02789,0.655403 -0.32649,1.053544 -0.11561,0.37696 0.7523,0.23245 0.11561,-0.37534 z m -23.4127,0.04885 0.58661,1.894167 0.11561,0.37534 0.75229,-0.23245 -0.11561,-0.37696 -0.31142,-1.004694 z" />
    <path
       id="path44"
       style="baseline-shift:baseline;display:inline;overflow:visible;opacity:1;vector-effect:none;fill:#595959;stroke-width:0.787758;stroke-linecap:square;stroke-linejoin:round;enable-background:accumulate;stop-color:#000000;stop-opacity:1"
       d="m 172.48921,84.298217 a 1.9472975,1.9472975 0 0 0 -1.94768,1.947168 1.9472975,1.9472975 0 0 0 0.002,0.0863 c 0.59396,-0.160419 1.18042,-0.350885 1.76681,-0.535368 0.60709,-0.188077 1.203,-0.409016 1.79834,-0.631486 a 1.9472975,1.9472975 0 0 0 -1.61954,-0.866614 z m 1.0232,3.612183 c -0.16179,0.0544 -0.32417,0.10718 -0.48731,0.157613 -0.54869,0.172543 -1.0978,0.349409 -1.6521,0.505395 -0.5006,0.784891 -1.0193,1.510439 -1.69757,2.047937 -0.83068,0.658278 -2.07354,1.106079 -2.84634,2.18798 -0.0114,0.01593 -0.0225,0.03194 -0.0336,0.04806 0.45231,-0.120196 0.90566,-0.235999 1.35909,-0.3514 0.0589,-0.01488 0.11783,-0.02998 0.17674,-0.04496 0.56036,-0.394021 1.22903,-0.743661 1.83348,-1.222664 0.88931,-0.704739 1.49296,-1.628572 2.05827,-2.536279 v 2.917134 c 0.26244,-0.05864 0.52476,-0.117471 0.78755,-0.174149 v -2.849439 c 0.53623,0.863438 1.09928,1.750296 1.90169,2.456181 0.34173,-0.06787 0.68307,-0.135393 1.02474,-0.203088 -0.10894,-0.07374 -0.21335,-0.149104 -0.31212,-0.227377 -0.83067,-0.658278 -1.42253,-1.598893 -2.0345,-2.584855 z m -14.58258,0.570507 a 2.0194197,2.0194197 0 0 0 -2.01899,2.019515 2.0194197,2.0194197 0 0 0 0.19533,0.867131 c 0.17517,-0.224038 0.34707,-0.450827 0.51522,-0.680579 0.27306,-0.353454 0.53132,-0.717779 0.80977,-1.067118 0.17915,-0.234553 0.36502,-0.465243 0.51314,-0.721403 0.0286,-0.04106 0.18364,-0.343232 0.19792,-0.359151 0.006,-0.01495 0.0112,-0.03011 0.0165,-0.04548 a 2.0194197,2.0194197 0 0 0 -0.22893,-0.01292 z m 27.38645,0 a 2.0194197,2.0194197 0 0 0 -1.59887,0.786516 c 0.12463,-0.02521 0.24903,-0.0507 0.37413,-0.0739 0.51223,-0.07642 1.01981,-0.179048 1.51774,-0.322977 0.20932,-0.05369 0.41799,-0.109856 0.6258,-0.168465 a 2.0194197,2.0194197 0 0 0 -0.91829,-0.221176 z m -6.82543,0.145728 a 1.0709591,1.0709591 0 0 0 -1.07073,1.070736 1.0709591,1.0709591 0 0 0 0.19533,0.6165 c 0.2984,-0.05452 0.59745,-0.103185 0.89659,-0.15503 0.33783,-0.06413 0.67647,-0.125029 1.01441,-0.189136 a 1.0709591,1.0709591 0 0 0 0.0351,-0.272334 1.0709591,1.0709591 0 0 0 -1.07074,-1.070736 z m -12.71808,1.011308 c -0.42202,0.160168 -0.83882,0.33403 -1.26298,0.489892 -0.39687,0.172721 -0.78811,0.357082 -1.17667,0.547254 -0.25961,0.189542 -0.50691,0.395073 -0.7307,0.626318 -0.49921,0.515853 -0.8346,1.114259 -1.14205,1.694987 l -1.01441,-0.913122 c -0.26006,0.119455 -0.5204,0.237699 -0.7798,0.358634 l 1.45159,1.30638 c -0.0777,0.276104 -0.16057,0.574671 -0.21445,0.899687 0.0455,-0.02185 0.0909,-0.04385 0.13642,-0.06563 0.25921,-0.121974 0.5195,-0.24109 0.78135,-0.356568 0.0206,-0.07494 0.0422,-0.151052 0.0641,-0.228926 l 0.0724,-0.254248 v -5.17e-4 l 0.0863,-0.163297 c 0.33999,-0.645973 0.66602,-1.255353 1.12499,-1.729611 0.38538,-0.398224 0.90548,-0.741749 1.46503,-1.083138 h 5.1e-4 a 1.0709591,1.0709591 0 0 0 0.0698,0.0026 1.0709591,1.0709591 0 0 0 1.07073,-1.071252 1.0709591,1.0709591 0 0 0 -0.002,-0.05943 z m -6.7877,3.128491 c -0.23908,0.11668 -0.47698,0.235644 -0.71417,0.356051 l 0.75654,2.442228 c 0.23865,-0.117464 0.47697,-0.235169 0.71572,-0.352433 z m 18.46089,0.0078 c -0.2937,0.05987 -0.58719,0.119405 -0.88109,0.178284 0.0976,0.09875 0.1868,0.202612 0.26614,0.313676 0.14987,0.209797 0.27356,0.455575 0.37,0.723987 l 0.15761,-0.15813 a 0.41689708,0.41689708 0 0 1 0.29507,-0.121956 0.41689708,0.41689708 0 0 1 0.29508,0.121956 l 0.0589,0.05943 c -0.1268,-0.389474 -0.304,-0.756751 -0.5364,-1.082105 -0.008,-0.01172 -0.0168,-0.02356 -0.0253,-0.03514 z m -5.54075,1.132231 c -0.0782,0.01745 -0.15648,0.03521 -0.23461,0.05271 -0.14859,0.0325 -0.29795,0.06132 -0.44752,0.08888 v 1.330151 c 0.26327,0.05078 0.52588,0.104246 0.78755,0.162264 v -1.528589 l -0.1049,-0.10542 z m 10.41848,2.185913 -1.10897,0.706934 c -0.006,0.01375 -0.0129,0.02807 -0.0196,0.04186 l 0.51677,0.810286 c 0.2486,-0.443533 0.44054,-0.901274 0.55758,-1.333252 0.0207,-0.07641 0.0389,-0.151639 0.0543,-0.225826 z m 0.73226,0.564824 -0.36484,1.177189 0.79272,-0.505913 z m -5.39812,0.413928 c -0.002,4.59e-4 -0.003,6.07e-4 -0.005,0.001 l 0.002,0.0021 z m -11.38277,0.476457 -0.15451,0.154512 c 0.0631,-0.0273 0.12619,-0.05372 0.18965,-0.0801 -0.0119,-0.02462 -0.0236,-0.04963 -0.0351,-0.07441 z m 14.44718,0.103869 c -0.16435,0.241404 -0.34474,0.471651 -0.53382,0.676445 0.23978,0.15272 0.47165,0.317579 0.69298,0.497644 0.11509,-0.130101 0.22549,-0.265742 0.33073,-0.406177 z m -18.04438,0.216524 c -0.16578,0.07053 -0.33023,0.143838 -0.49351,0.219625 l -0.18293,0.286804 v 5.17e-4 c 0.26283,0.356802 0.55953,0.686226 0.8785,0.963766 0.0214,0.01862 0.0431,0.03674 0.0646,0.05478 0.26104,-0.163033 0.52538,-0.320894 0.7922,-0.47439 -0.12069,-0.08241 -0.23823,-0.172516 -0.35296,-0.272335 -0.24742,-0.215279 -0.4876,-0.484805 -0.7059,-0.778764 z m 2.8944,0.03979 c 0.006,0.01173 0.011,0.02346 0.0165,0.03514 0.0133,-0.0062 0.0265,-0.01238 0.0398,-0.0186 a 0.41689708,0.41689708 0 0 1 -0.0563,-0.01654 z m 17.76533,0.503845 -1.02785,0.655258 -0.26562,0.856795 c 0.21271,0.222342 0.41758,0.452302 0.61082,0.692462 l 0.0806,-0.26148 z m -11.32748,0.328663 c -0.26196,0.07158 -0.5242,0.14254 -0.78703,0.210839 v 0.268718 c -0.58542,0.01688 -1.16722,0.0649 -1.74511,0.134875 -0.26435,0.05098 -0.52997,0.09649 -0.79685,0.135393 -0.36127,0.05517 -0.72727,0.09188 -1.08159,0.183451 -0.52387,0.175297 -1.01531,0.444016 -1.51619,0.673346 -0.42607,0.22538 -0.84986,0.45627 -1.26659,0.69867 0.42538,-0.0986 0.85167,-0.19394 1.27848,-0.28578 l 0.0202,0.006 0.002,-0.0103 c 0.17568,-0.0378 0.35171,-0.075 0.52761,-0.11162 1.72609,-0.35924 3.45685,-0.659249 5.18057,-0.64182 1.87296,0.0189 3.74337,0.41195 5.60999,0.85524 0.97052,0.23048 1.93818,0.47283 2.90267,0.72761 -0.22687,-0.2389 -0.46484,-0.46726 -0.70797,-0.68988 -0.17417,-0.16534 -0.35937,-0.31428 -0.55346,-0.44959 -0.15752,-0.0395 -0.31515,-0.0784 -0.47284,-0.1173 0.0622,-0.022 0.12438,-0.0449 0.18656,-0.0687 -0.21548,-0.13125 -0.43977,-0.24912 -0.67025,-0.357089 -0.16382,-0.06487 -0.32839,-0.127376 -0.49402,-0.187586 -0.10371,0.02974 -0.20863,0.05941 -0.3142,0.08888 l -0.3886,0.10852 0.004,0.01602 c -0.14256,-0.0326 -0.2853,-0.06462 -0.4284,-0.09612 0.0982,-0.132543 0.1965,-0.26574 0.29456,-0.401526 -0.26417,-0.08539 -0.52985,-0.167268 -0.79582,-0.247014 -0.0607,0.08271 -0.1217,0.165719 -0.18345,0.249081 l -0.16433,0.221692 c -1.1943,-0.236187 -2.40775,-0.410403 -3.64009,-0.437183 z m -11.39,0.163814 c -0.15656,0.09565 -0.31275,0.191666 -0.46871,0.288354 l 0.35967,1.162204 0.11576,0.37517 0.62115,-0.19172 5.1e-4,-5.1e-4 c 0.0392,-0.0277 0.0786,-0.0551 0.11783,-0.0827 l -0.10284,-0.33434 -0.31109,-1.004595 z" />
    <path
       id="path44-5-6"
       style="baseline-shift:baseline;display:inline;overflow:visible;vector-effect:none;fill:#595959;fill-opacity:1;stroke-width:0.787758;stroke-linecap:square;stroke-linejoin:round;enable-background:accumulate;stop-color:#000000"
       d="m 170.88569,87.350744 a 1.9472975,1.9472975 0 0 0 0.094,0.125057 c 0.93954,0.292249 1.87771,0.588292 2.81482,0.888318 -0.0681,-0.108431 -0.13591,-0.217737 -0.20412,-0.327629 l -0.0816,-0.131775 a 1.9472975,1.9472975 0 0 0 0.14986,-0.102319 c -0.92326,-0.156993 -1.84771,-0.30672 -2.77296,-0.451652 z m 7.91477,1.528072 a 1.0709591,1.0709591 0 0 0 -0.38034,0.818555 1.0709591,1.0709591 0 0 0 0.031,0.256832 c 0.39506,-0.275252 0.78817,-0.553144 1.17978,-0.833025 -0.22987,-0.07172 -0.46084,-0.140105 -0.69298,-0.204638 -0.0462,-0.01283 -0.092,-0.02532 -0.13746,-0.03772 z m -21.16357,0.07028 a 2.0194197,2.0194197 0 0 0 -0.71779,1.366842 c 1.1753,0.07052 2.3505,0.144617 3.52537,0.222208 -0.93311,-0.493187 -1.83538,-1.03954 -2.75384,-1.559594 -0.0179,-0.0097 -0.0359,-0.01971 -0.0537,-0.02946 z m 26.76891,2.204517 a 2.0194197,2.0194197 0 0 0 0.11885,0.278019 l -0.76222,0.686263 c 0.16498,0.07063 0.32985,0.141639 0.49454,0.212907 0.11979,0.02622 0.23935,0.0524 0.35915,0.07855 l 0.38654,-0.347783 0.0997,0.05323 a 2.0194197,2.0194197 0 0 1 -0.0641,-0.05478 2.0194197,2.0194197 0 0 0 0.3669,0.242879 l -0.0791,0.255282 c 0.43086,0.09046 0.60226,0.126814 0.77463,0.160197 l 0.063,-0.204122 a 2.0194197,2.0194197 0 0 1 -0.0393,-0.0057 2.0194197,2.0194197 0 0 0 0.19172,0.01137 2.0194197,2.0194197 0 0 0 0.35708,-0.03152 c -0.60753,-0.372442 -1.2195,-0.737666 -1.834,-1.097608 -0.14361,-0.07989 -0.2887,-0.159431 -0.43356,-0.237194 z m -24.71839,3.312459 0.10387,0.33538 c 0.31443,0.121659 0.62765,0.245655 0.93999,0.37207 l -0.20205,-0.652156 c -0.28048,-0.01869 -0.56131,-0.03701 -0.84181,-0.05529 z m 2.22105,0.148828 c -0.0267,0.154485 -0.0467,0.315087 -0.0568,0.482141 l 0.80874,0.515731 c -0.0398,-0.339883 -0.0108,-0.640122 0.0512,-0.941545 -0.26755,-0.01886 -0.53548,-0.03785 -0.80306,-0.05633 z m 4.43643,0.324528 -0.29353,0.294039 c -0.0184,0.361259 -0.002,0.723139 0.0445,1.072803 l 0.58446,0.58446 c 0.0516,-0.02758 0.10344,-0.05508 0.15502,-0.08268 l 0.13023,-0.130225 c -0.01,-0.03944 -0.0188,-0.07934 -0.0274,-0.119372 -0.10568,-0.493177 -0.12752,-1.045406 -0.0651,-1.578715 -0.17388,-0.01319 -0.34951,-0.02688 -0.52762,-0.04031 z m 12.86174,1.345654 c -0.17118,0.232067 -0.3874,0.46352 -0.65267,0.68833 l 0.10077,0.100769 0.50746,-0.507462 c 0.017,-0.09282 0.0319,-0.186819 0.0444,-0.281637 z m 4.77801,0.657841 c -0.01,0.01409 -0.0203,0.02825 -0.0305,0.04238 l -0.26304,0.849044 0.79272,-0.505913 -0.21704,-0.340547 c -0.0941,-0.01506 -0.18808,-0.03003 -0.28215,-0.04496 z m -5.98465,0.656808 c -0.30665,0.641579 -0.73577,1.225888 -1.18546,1.832963 l -0.16433,0.221692 c -0.43014,-0.08507 -0.8625,-0.161865 -1.2976,-0.22686 -0.13174,0.114345 -0.27148,0.237968 -0.42374,0.376205 -0.11491,0.104325 -0.22849,0.209979 -0.34107,0.316779 0.68538,0.0812 1.37018,0.19903 2.05466,0.33744 0.45938,-0.733481 0.91452,-1.469828 1.38751,-2.194694 0.0846,-0.12641 0.16984,-0.252452 0.25528,-0.378271 z m 6.3376,0.811836 -1.02785,0.655258 -0.32659,1.053685 -0.11576,0.37672 0.75241,0.23254 0.11576,-0.37517 z m -3.17294,2.313033 c -0.1492,0.23236 -0.29675,0.46553 -0.4439,0.69919 0.72589,0.18756 1.44984,0.38205 2.17196,0.58342 l 0.37982,0.10594 0.21084,-0.75861 -0.37982,-0.10645 c -0.64485,-0.17983 -1.29125,-0.35436 -1.9389,-0.52349 z" />
    <path
       id="path44-5-68"
       style="baseline-shift:baseline;display:inline;overflow:visible;fill:none;fill-opacity:1;stroke:#000000;stroke-width:0.264583;stroke-linecap:square;stroke-linejoin:round;stroke-dasharray:none;stroke-opacity:1;enable-background:accumulate;stop-color:#000000"
       d="m 172.48918,84.298252 a 1.9472975,1.9472975 0 0 0 -1.9475,1.947089 1.9472975,1.9472975 0 0 0 1.17078,1.785883 l -0.003,0.0053 c -0.61197,0.985962 -1.20312,1.926306 -2.0338,2.584584 -0.83068,0.658278 -2.07354,1.106184 -2.84634,2.188085 -0.20855,0.291981 -0.37265,0.617523 -0.49583,0.962756 l 0.0871,-0.08712 a 0.41689708,0.41689708 0 0 1 0.29473,-0.122126 0.41689708,0.41689708 0 0 1 0.29514,0.122126 l 0.1494,0.1494 c 0.0859,-0.20803 0.18905,-0.39984 0.30938,-0.568291 0.58718,-0.822035 1.72446,-1.258005 2.69572,-2.027692 0.88931,-0.704739 1.49292,-1.628435 2.05823,-2.536142 v 4.117665 l 0.0928,-0.09282 a 0.41689708,0.41689708 0 0 1 0.29473,-0.122126 0.41689708,0.41689708 0 0 1 0.29514,0.122126 l 0.10502,0.105028 v -4.23613 c 0.58467,0.941426 1.20061,1.91018 2.12458,2.642391 0.97127,0.769687 2.10854,1.205657 2.69572,2.027692 0.14987,0.209797 0.27319,0.455793 0.36963,0.724205 l 0.15796,-0.15795 a 0.41689708,0.41689708 0 0 1 0.29473,-0.122125 0.41689708,0.41689708 0 0 1 0.29513,0.122125 l 0.059,0.05903 c -0.1268,-0.389474 -0.30414,-0.756678 -0.53654,-1.082032 -0.7728,-1.081901 -2.01566,-1.529807 -2.84634,-2.188085 -0.83067,-0.658278 -1.42223,-1.598622 -2.0342,-2.584584 l -0.0818,-0.131896 a 1.9472975,1.9472975 0 0 0 0.92774,-1.65928 1.9472975,1.9472975 0 0 0 -1.94708,-1.947089 z m -13.5592,4.182801 a 2.0194197,2.0194197 0 0 0 -2.01915,2.019551 2.0194197,2.0194197 0 0 0 2.01915,2.019551 2.0194197,2.0194197 0 0 0 0.19215,-0.0114 2.0194197,2.0194197 0 0 1 -0.0395,0.0057 l 1.20945,3.904764 0.55526,-0.87035 -1.00591,-3.246098 a 2.0194197,2.0194197 0 0 0 0.36678,-0.242623 2.0194197,2.0194197 0 0 1 -0.0643,0.05455 l 0.0997,-0.05333 1.87423,1.686962 c -0.1122,0.398746 -0.23557,0.843902 -0.26624,1.348674 l 0.80888,0.515777 c -0.0687,-0.586888 0.0673,-1.056105 0.22471,-1.615722 l 0.0725,-0.254428 v -4.07e-4 l 0.0863,-0.163649 c 0.33999,-0.645973 0.66581,-1.25504 1.12478,-1.729298 0.38538,-0.398224 0.90555,-0.741866 1.4651,-1.083255 h 4.1e-4 a 1.0709591,1.0709591 0 0 0 0.07,0.0024 1.0709591,1.0709591 0 0 0 1.07063,-1.071041 1.0709591,1.0709591 0 0 0 -1.07063,-1.071042 1.0709591,1.0709591 0 0 0 -1.07105,1.071042 1.0709591,1.0709591 0 0 0 0.20722,0.633018 c -0.4428,0.282829 -0.87187,0.592618 -1.23796,0.970898 -0.49921,0.515853 -0.83483,1.114375 -1.14228,1.695103 l -1.73825,-1.564836 a 2.0194197,2.0194197 0 0 0 0.22756,-0.931004 2.0194197,2.0194197 0 0 0 -2.01955,-2.019551 z m 27.38666,0 a 2.0194197,2.0194197 0 0 0 -2.01954,2.019551 2.0194197,2.0194197 0 0 0 0.22756,0.931004 l -1.77327,1.596589 c -0.31204,-0.590625 -0.65065,-1.201599 -1.15897,-1.726856 -0.36609,-0.37828 -0.79516,-0.688069 -1.23795,-0.970898 a 1.0709591,1.0709591 0 0 0 0.20721,-0.633018 1.0709591,1.0709591 0 0 0 -1.07104,-1.071042 1.0709591,1.0709591 0 0 0 -1.07063,1.071042 1.0709591,1.0709591 0 0 0 1.07063,1.071041 1.0709591,1.0709591 0 0 0 0.07,-0.0024 h 4.1e-4 c 0.55955,0.341389 1.0797,0.685031 1.46509,1.083255 0.45897,0.474258 0.78479,1.083325 1.12478,1.729298 l 0.18319,0.347652 0.006,-0.0033 0.0212,0.07409 c 0.15362,0.546022 0.28705,1.00621 0.2296,1.573385 l 0.80156,-0.510892 v -4.07e-4 c -0.0344,-0.489129 -0.15443,-0.922118 -0.2638,-1.310815 l 1.87423,-1.686962 0.0997,0.05333 a 2.0194197,2.0194197 0 0 1 -0.0643,-0.05455 2.0194197,2.0194197 0 0 0 0.36678,0.242623 l -1.02585,3.311233 0.55485,0.869941 1.22981,-3.96949 a 2.0194197,2.0194197 0 0 1 -0.0395,-0.0057 2.0194197,2.0194197 0 0 0 0.19214,0.0114 2.0194197,2.0194197 0 0 0 2.01915,-2.019551 2.0194197,2.0194197 0 0 0 -2.01915,-2.019551 z m -13.70615,5.130497 -0.38754,0.387546 v 1.581119 l 0.38876,0.388767 0.39894,-0.398944 v -1.558323 z m -5.89541,0.957872 -0.66396,0.663956 c -0.0184,0.361259 -0.002,0.723414 0.0448,1.073078 l 0.62039,0.620398 0.24913,-0.249137 c -0.01,-0.03944 -0.0187,-0.07924 -0.0273,-0.119276 -0.12036,-0.561698 -0.13183,-1.200499 -0.0342,-1.800131 z m 11.93819,0.147365 -0.23041,0.230411 c 0.0671,0.54325 0.0467,1.108129 -0.0611,1.611243 -0.013,0.06079 -0.0272,0.120891 -0.0427,0.18034 l 0.33544,0.335437 0.50763,-0.507635 c 0.0739,-0.40249 0.10586,-0.8263 0.0904,-1.250566 z m 4.67048,1.375542 -1.10889,0.707107 c -0.006,0.01375 -0.0133,0.02773 -0.02,0.04152 l 0.51701,0.810507 c 0.2486,-0.443533 0.44066,-0.901226 0.5577,-1.333204 0.0207,-0.07643 0.0387,-0.151725 0.0541,-0.225932 z m -21.39111,0.04559 c 0.0132,0.05948 0.0279,0.119454 0.0444,0.180339 0.11252,0.415266 0.29446,0.854132 0.52922,1.281505 l 0.49705,-0.779162 z m -0.76207,0.454714 -0.46936,0.736011 0.86913,0.55445 z m 22.88553,0.06473 -0.36475,1.176884 0.7926,-0.5056 z m -11.04545,0.092 -0.10421,0.104214 a 0.41689708,0.41689708 0 0 1 -0.58946,0 l -0.094,-0.09404 v 2.460419 c -1.21059,0.0349 -2.40583,0.2036 -3.58277,0.422147 l -0.15591,-0.209237 c -0.46179,-0.623421 -0.90152,-1.223143 -1.20944,-1.885212 l -0.2638,0.263792 a 0.41689708,0.41689708 0 0 1 -0.43884,0.09648 c 0.33067,0.704481 0.77725,1.31513 1.21149,1.901497 -0.10001,0.0204 -0.1999,0.0411 -0.29962,0.0619 -0.0586,0.0122 -0.1173,0.0243 -0.17586,0.0366 l -0.37411,-0.10422 c -0.93994,-0.26238 -1.80963,-0.512407 -2.55038,-1.156933 -0.31979,-0.27824 -0.62752,-0.647189 -0.89153,-1.042138 l -0.49094,0.769799 v 4.06e-4 c 0.26283,0.356802 0.55952,0.686439 0.87849,0.963979 0.58969,0.513087 1.22807,0.799694 1.86323,1.016084 -0.0631,-0.0215 -0.12457,-0.0346 -0.18767,-0.0578 -1.15056,0.26844 -2.29522,0.56143 -3.43336,0.8789 l -0.37981,0.10625 0.2121,0.7584 0.37859,-0.10624 c 1.57479,-0.43928 3.16397,-0.83051 4.76249,-1.17445 l 0.0203,0.006 0.002,-0.0106 c 0.17568,-0.0378 0.35169,-0.0749 0.52759,-0.11154 1.72609,-0.35924 3.45643,-0.658987 5.18015,-0.64157 1.87296,0.0189 3.74343,0.412 5.61005,0.85529 1.49285,0.35452 2.97921,0.73746 4.45718,1.14961 l 0.37981,0.10625 0.21087,-0.75881 -0.37981,-0.10625 c -1.16199,-0.32403 -2.32833,-0.63112 -3.49931,-0.92002 0.60163,-0.21317 1.2039,-0.503367 1.76228,-0.989214 0.30566,-0.26596 0.59094,-0.579888 0.84552,-0.919605 l -0.48973,-0.768044 c -0.25682,0.377226 -0.55266,0.728111 -0.85977,0.995324 -0.74075,0.644525 -1.61045,0.894552 -2.55039,1.156932 l -0.38836,0.10829 0.004,0.0163 c -0.14256,-0.0326 -0.28556,-0.0646 -0.42866,-0.0961 -0.0173,0.0233 -0.0345,0.0464 -0.0517,0.0696 0.41957,-0.566437 0.85686,-1.152575 1.1952,-1.8213 a 0.41689708,0.41689708 0 0 1 -0.28333,-0.121719 l -0.35905,-0.359049 c -0.30665,0.641579 -0.73575,1.226026 -1.18544,1.833101 l -0.16446,0.221457 c -1.1943,-0.236187 -2.40782,-0.410427 -3.64016,-0.437207 z m 11.32675,1.66213 -1.02789,0.655403 -0.32649,1.053544 -0.11561,0.37696 0.7523,0.23245 0.11561,-0.37534 z m -23.4127,0.04885 0.58661,1.894167 0.11561,0.37534 0.75229,-0.23245 -0.11561,-0.37696 -0.31142,-1.004694 z" />
  </g>
</svg>
