<?xml version="1.0" encoding="UTF-8" standalone="no"?>
<!-- Created with Inkscape (http://www.inkscape.org/) -->

<svg
   width="648.42389"
   height="118.12012"
   viewBox="0 0 171.56215 31.252614"
   version="1.1"
   id="svg1"
   sodipodi:docname="CosRwa_Logo_dark.svg"
   inkscape:version="1.4.3 (0d15f75042, 2025-12-25)"
   inkscape:export-filename="CosRwa_Logo_dark.webp"
   inkscape:export-xdpi="96"
   inkscape:export-ydpi="96"
   xmlns:inkscape="http://www.inkscape.org/namespaces/inkscape"
   xmlns:sodipodi="http://sodipodi.sourceforge.net/DTD/sodipodi-0.dtd"
   xmlns:xlink="http://www.w3.org/1999/xlink"
   xmlns="http://www.w3.org/2000/svg"
   xmlns:svg="http://www.w3.org/2000/svg">
  <sodipodi:namedview
     id="namedview1"
     pagecolor="#000000"
     bordercolor="#000000"
     borderopacity="0.25"
     inkscape:showpageshadow="2"
     inkscape:pageopacity="0.0"
     inkscape:pagecheckerboard="0"
     inkscape:deskcolor="#d1d1d1"
     inkscape:zoom="1.1859526"
     inkscape:cx="220.07625"
     inkscape:cy="0.42160201"
     inkscape:window-width="2560"
     inkscape:window-height="1020"
     inkscape:window-x="0"
     inkscape:window-y="0"
     inkscape:window-maximized="1"
     inkscape:current-layer="svg1" />
  <defs
     id="defs1">
    <linearGradient
       id="linearGradient183">
      <stop
         style="stop-color:#197c98;stop-opacity:1;"
         offset="0"
         id="stop179" />
      <stop
         style="stop-color:#22888f;stop-opacity:1;"
         offset="0.26135886"
         id="stop180" />
      <stop
         style="stop-color:#f2fb00;stop-opacity:1;"
         offset="0.49354619"
         id="stop181" />
      <stop
         style="stop-color:#67cc56;stop-opacity:1;"
         offset="0.67136145"
         id="stop182" />
      <stop
         style="stop-color:#5fd35b;stop-opacity:1;"
         offset="1"
         id="stop183" />
    </linearGradient>
    <linearGradient
       xlink:href="#linearGradient183"
       id="linearGradient86"
       x1="47.085327"
       y1="119.77755"
       x2="219.17665"
       y2="119.77755"
       gradientUnits="userSpaceOnUse" />
    <linearGradient
       xlink:href="#linearGradient183"
       id="linearGradient53"
       x1="156.91083"
       y1="93.205826"
       x2="188.33568"
       y2="93.205826"
       gradientUnits="userSpaceOnUse"
       gradientTransform="matrix(1.2254291,0,0,1.2254291,-38.133457,-24.532184)" />
  </defs>
  <g
     id="layer1"
     transform="translate(-47.349913,-104.15125)">
    <text
       xml:space="preserve"
       style="font-size:25.4px;font-family:'Robot Rocket';-inkscape-font-specification:'Robot Rocket, Normal';writing-mode:lr-tb;direction:ltr;fill:url(#linearGradient86);fill-opacity:1;stroke:none;stroke-width:0.79375;stroke-linecap:square;stroke-linejoin:round;stroke-dasharray:none;stroke-opacity:1"
       x="47.482204"
       y="134.40796"
       id="text85-2"><tspan
         id="tspan85-0"
         style="font-style:normal;font-variant:normal;font-weight:normal;font-stretch:normal;font-size:50.8px;font-family:exwayer;-inkscape-font-specification:'exwayer, Normal';font-variant-ligatures:normal;font-variant-caps:normal;font-variant-numeric:normal;font-variant-east-asian:normal;fill:url(#linearGradient86);stroke:none;stroke-width:0.79375;stroke-dasharray:none"
         x="47.482204"
         y="134.40796">COSRWA</tspan></text>
    <path
       id="text85"
       style="font-size:25.4px;font-family:'Robot Rocket';-inkscape-font-specification:'Robot Rocket, Normal';writing-mode:lr-tb;direction:ltr;fill:#303030;fill-opacity:1;stroke:none;stroke-width:0.79375;stroke-linecap:square;stroke-linejoin:round;stroke-dasharray:none;stroke-opacity:1"
       d="m 154.00972,104.28356 3.49023,8.18038 c 0.1907,0.0632 0.38141,0.12651 0.57206,0.19017 0.0934,-0.0269 0.18703,-0.0531 0.2806,-0.0796 l -3.53002,-8.29097 z m 8.68681,0 2.78484,6.54999 c 0.24195,-0.0534 0.48403,-0.10655 0.72606,-0.15968 l -2.69803,-6.39031 z m 52.86912,0.25373 c -0.47854,0.24425 -0.95096,0.50113 -1.42058,0.76223 h 3.92327 v 5.07773 c 0.003,-0.002 0.007,-0.004 0.0103,-0.006 0.23419,-0.18114 0.46806,-0.36273 0.70125,-0.54518 v -5.28857 h -3.21376 z m -103.36423,5.2e-4 c -2.91253,0 -5.16444,0.52471 -6.75618,1.57458 -1.1176,0.74507 -2.09992,1.93025 -2.94659,3.55585 -0.54186,1.2192 -0.88049,2.40491 -1.01596,3.55638 -0.1016,1.1176 -0.0172,2.11618 0.25374,2.99671 0.3048,0.88054 0.64342,1.6427 1.01595,2.28617 0.11501,0.1725 0.23447,0.33961 0.35761,0.50126 0.23312,-0.10972 0.46586,-0.21934 0.69918,-0.32866 -0.15413,-0.19725 -0.303,-0.40739 -0.447,-0.62994 -0.33867,-0.57573 -0.64323,-1.26976 -0.91416,-2.08256 -0.23707,-0.8128 -0.3052,-1.72698 -0.2036,-2.74298 0.1016,-1.04987 0.40667,-2.13388 0.91467,-3.25148 0.77893,-1.49014 1.67634,-2.57364 2.69234,-3.25097 1.45627,-0.94827 3.57293,-1.42265 6.35,-1.42265 h 6.38669 c -0.18422,-0.25272 -0.36713,-0.50642 -0.54777,-0.76171 z m 22.61051,0 c 0.19155,0.25365 0.38263,0.50762 0.57361,0.76171 h 7.29567 c 2.30294,0 4.26758,0.81301 5.89318,2.43861 0.80953,0.793 1.42145,1.67067 1.83607,2.63291 0.28276,0.0604 0.56465,0.12464 0.84594,0.19276 -0.44198,-1.23399 -1.16646,-2.3451 -2.17403,-3.33365 -1.76106,-1.79493 -3.89502,-2.69234 -6.40116,-2.69234 z m -76.048075,0.45785 c -0.707327,0.18234 -1.403001,0.41935 -2.086694,0.71055 -1.8288,0.74507 -3.437529,1.81179 -4.826062,3.20032 -0.252993,0.253 -0.495037,0.51037 -0.726054,0.77257 0.139785,0.21736 0.280051,0.4344 0.42168,0.6506 0.256089,-0.29446 0.526928,-0.5826 0.812353,-0.86454 2.151237,-2.15124 4.64781,-3.46948 7.489982,-3.95428 -0.361949,-0.17146 -0.723479,-0.34329 -1.085205,-0.51522 z m 36.063949,2.61638 c -0.2088,0.13908 -0.419277,0.27553 -0.630969,0.41031 0.249371,0.21463 0.493684,0.44149 0.732771,0.68058 2.3368,2.3368 3.505213,5.16479 3.505213,8.48372 v 3.94808 c 0.237197,-0.10479 0.474085,-0.20996 0.711068,-0.31523 v -3.63285 c 0,-3.52213 -1.236035,-6.51943 -3.708301,-8.9917 -0.199787,-0.20252 -0.403138,-0.39676 -0.609782,-0.58291 z m 15.849676,2.76727 c -0.9144,0 -1.69334,0.32185 -2.33681,0.96532 -0.64346,0.64346 -0.96531,1.42241 -0.96531,2.33681 0,0.88053 0.32185,1.6427 0.96531,2.28616 0.19453,0.19453 0.40135,0.35986 0.62064,0.49558 0.31042,-0.12076 0.6214,-0.23982 0.93327,-0.35657 -0.38673,-0.12067 -0.73521,-0.33627 -1.04593,-0.64699 -0.47413,-0.508 -0.71106,-1.10085 -0.71106,-1.77818 0,-0.7112 0.23693,-1.32083 0.71106,-1.82883 0.508,-0.508 1.11763,-0.76171 1.82883,-0.76171 h 11.48199 c -0.12833,-0.2358 -0.25378,-0.47316 -0.37672,-0.71159 z m 93.65372,0 c -0.48701,0.22642 -0.97175,0.45779 -1.45831,0.68523 -0.0183,0.009 -0.0365,0.0176 -0.0548,0.0264 h 9.40873 v 2.41949 c 0.23946,-0.10712 0.47719,-0.21794 0.71107,-0.33693 v -2.79415 z m -115.651858,0.76533 c -0.30345,0.16111 -0.607517,0.32096 -0.912089,0.48007 -0.0094,0.005 -0.01897,0.01 -0.02842,0.015 0.767939,0.17712 1.471526,0.51954 2.110465,1.02629 0.915174,0.72582 1.536375,1.62809 1.863453,2.70682 0.555395,0.49727 1.098251,1.00858 1.620056,1.54357 0.09827,0.11291 0.195112,0.227 0.290421,0.3421 0.02418,-0.1053 0.03617,-0.2137 0.03617,-0.32505 0,-0.33867 -0.118467,-0.64373 -0.355534,-0.91467 -0.2032,-0.27093 -0.474204,-0.42347 -0.81287,-0.45733 -0.3048,-1.38854 -1.032897,-2.53966 -2.184363,-3.45406 -0.507533,-0.41525 -1.049926,-0.73608 -1.627291,-0.96273 z m -30.487545,0.41341 c -0.07243,0.0343 -0.141525,0.0721 -0.21239,0.10801 0.071,-0.0356 0.141347,-0.0725 0.21239,-0.10801 z m 143.112713,0.28526 c -0.23761,0.12145 -0.47461,0.24422 -0.71107,0.36793 v 7.61246 c 0.1374,-0.10341 0.27438,-0.20744 0.41083,-0.31213 0.0999,-0.0717 0.19996,-0.14336 0.30024,-0.21446 z m 5.43584,3.31142 c -0.37253,0 -0.69438,0.13524 -0.96531,0.40618 -0.27094,0.27093 -0.4067,0.61007 -0.4067,1.01647 0,0.0922 0.008,0.18125 0.0248,0.26717 0.19581,-0.0898 0.39098,-0.18132 0.58549,-0.27388 -0.0183,0.0142 -0.0284,0.0218 -0.0305,0.0238 0.004,-0.002 0.0398,-0.025 0.11111,-0.0677 0.22409,-0.13415 0.44484,-0.26157 0.67179,-0.38964 0.0412,-0.0233 0.0829,-0.0456 0.12454,-0.0682 0.29561,-0.16524 0.59392,-0.32568 0.89039,-0.48938 -0.0437,-0.0417 -0.0912,-0.0817 -0.14211,-0.11989 -0.23707,-0.2032 -0.52485,-0.30489 -0.86352,-0.30489 z m -28.27321,0.12402 c -0.42988,0.11664 -0.86067,0.23084 -1.29191,0.34262 l 0.10077,0.14314 c -0.13547,0.2032 -0.20309,0.42336 -0.20309,0.66043 0,0.0118 2.5e-4,0.0234 5.2e-4,0.0351 0.45269,-0.40772 0.91754,-0.80163 1.39371,-1.18133 z m 16.99535,0.12248 c -0.23411,0.19802 -0.47157,0.39163 -0.71107,0.58291 v 6.1128 c 0.2375,-0.0358 0.47434,-0.0809 0.71107,-0.13436 z m -115.072565,0.17208 c -0.09457,0.43481 -0.141593,0.88802 -0.141593,1.35961 v 5.84202 c 0,1.45626 0.457093,2.74314 1.371493,3.86074 0.228733,0.27957 0.472302,0.53353 0.730704,0.76223 0.0599,-0.0175 0.120773,-0.0352 0.182935,-0.0532 0.229295,-0.0645 0.45734,-0.13174 0.684713,-0.20154 -0.381788,-0.28439 -0.728314,-0.62279 -1.03973,-1.01544 -0.778934,-0.98214 -1.168404,-2.09971 -1.168404,-3.35277 v -5.84202 c 0,-0.30896 0.02254,-0.60862 0.0677,-0.89866 -0.226282,-0.15817 -0.45582,-0.31155 -0.687814,-0.46095 z m -5.932971,2.02365 c -0.06895,0.0282 -0.137853,0.0568 -0.206705,0.0853 -0.167935,0.0674 -0.336058,0.13404 -0.504362,0.2005 v 4.63796 c 0,1.88288 0.353359,3.6158 1.059883,5.19865 0.287387,0.0548 0.57559,0.10506 0.864547,0.14934 -0.808755,-1.61261 -1.213363,-3.39547 -1.213363,-5.34799 z m 144.322976,1.36994 c -0.2361,0.16592 -0.47352,0.3304 -0.71159,0.49351 v 14.94741 h 0.71159 z m -84.27755,2.02985 c -0.33136,0 -0.62242,0.1071 -0.87333,0.32143 0.30788,-0.10673 0.61571,-0.21383 0.92346,-0.32091 -0.0167,-4.7e-4 -0.0332,-5.2e-4 -0.0501,-5.2e-4 z m 26.84694,0.48834 3.75947,8.81187 c 0.15233,-0.25789 0.30659,-0.51493 0.46198,-0.77101 l -3.29489,-7.73803 c -0.30905,-0.10002 -0.61805,-0.20112 -0.92656,-0.30283 z m -46.08504,0.52762 c -0.92175,0.29446 -1.83622,0.61168 -2.74867,0.93379 -0.0366,0.0135 -0.073,0.0272 -0.10955,0.0408 0.0589,0.13964 0.14316,0.27169 0.2527,0.39687 0.27093,0.27094 0.59278,0.4067 0.96531,0.4067 0.3048,0 0.57529,-0.10169 0.81236,-0.30489 0.23706,-0.2032 0.3896,-0.44014 0.45733,-0.71107 h 1.5751 c 0.7112,0 1.32031,0.25371 1.82831,0.76171 0.508,0.47413 0.76223,1.06698 0.76223,1.77818 0,0.59544 -0.1782,1.11951 -0.53433,1.57252 0.34472,-0.12483 0.68924,-0.25019 1.03352,-0.37621 0.0608,-0.15879 0.10852,-0.3232 0.14315,-0.49299 -0.1804,-0.33989 -0.32042,-0.72184 -0.42065,-1.15393 -0.0559,-0.24086 -0.0555,-0.49122 -0.0832,-0.73691 0.0198,-0.20496 0.0292,-0.41117 0.0465,-0.6165 -0.12423,-0.1868 -0.27046,-0.36451 -0.43873,-0.53278 -0.64347,-0.64347 -1.42241,-0.96532 -2.33681,-0.96532 z m 97.67363,0.58394 c -0.23655,0.13213 -0.47348,0.26351 -0.71107,0.39378 v 11.41739 h 0.71107 z m -68.69814,2.67994 c -0.23103,0.0858 -0.46191,0.17168 -0.69298,0.25735 2.50067,4.16523 4.12581,6.88615 4.87516,8.16281 h -7.26467 l -3.35277,-6.07663 c -0.22982,0.0804 -0.45942,0.16074 -0.68936,0.24081 l 3.58479,6.54689 h 9.04286 z m -94.343074,1.02578 c -0.222896,0.0914 -0.446074,0.18332 -0.668693,0.27544 0.677248,1.23628 1.551757,2.38995 2.623096,3.46128 1.388533,1.38854 2.997262,2.47255 4.826062,3.25149 1.8288,0.74506 3.742085,1.11724 5.740218,1.11724 H 71.1724 c -0.344783,-0.0876 -0.68812,-0.17893 -1.030428,-0.27337 -0.439889,-0.13982 -0.877991,-0.2856 -1.313615,-0.4377 h -6.410978 c -3.928533,0 -7.281234,-1.38857 -10.058301,-4.16564 -1.001435,-1.00143 -1.822067,-2.07758 -2.462382,-3.22874 z m 131.896864,1.1591 -2.38384,5.57486 -1.24488,-2.33578 c -0.11493,0.10717 -0.23068,0.21351 -0.34727,0.31885 -0.0665,0.0628 -0.13308,0.12575 -0.19947,0.18862 l 1.89342,3.55533 3.01946,-7.10447 c -0.10322,-0.0274 -0.20648,-0.0551 -0.30954,-0.0832 -0.14269,-0.038 -0.28526,-0.076 -0.42788,-0.11421 z m -79.7016,0.39326 v 5.01417 c 0.2372,-0.0871 0.4744,-0.17433 0.71158,-0.26149 v -4.04161 h 11.04688 c 0.66046,-0.23796 1.32184,-0.47451 1.98282,-0.71107 z m 99.21255,0.74466 c -0.23955,0.21447 -0.47666,0.43157 -0.71107,0.65164 v 4.44572 h -3.81527 c -0.15547,0.23454 -0.30684,0.4718 -0.45527,0.71107 h 4.98161 z m -72.84723,2.37763 c -0.23705,0.0907 -0.47405,0.18154 -0.71107,0.27234 v 3.15846 h 0.71107 z m -34.929138,1.2454 c -2.040209,1.52492 -4.401171,2.2872 -7.082255,2.2872 -0.638515,0 -1.26,-0.044 -1.863969,-0.13229 -0.01607,0.005 -0.03198,0.009 -0.04806,0.0134 -0.632381,0.1772 -1.0081,0.29106 -1.469161,0.40307 1.070526,0.28464 2.197588,0.42685 3.381189,0.42685 2.773962,0 5.222513,-0.76664 7.345288,-2.30012 -0.08563,-0.23355 -0.173258,-0.4662 -0.263033,-0.69815 z" />
    <text
       xml:space="preserve"
       style="font-size:25.4px;font-family:'Robot Rocket';-inkscape-font-specification:'Robot Rocket, Normal';writing-mode:lr-tb;direction:ltr;fill:none;fill-opacity:1;stroke:#ffffff;stroke-width:0.264583;stroke-linecap:square;stroke-linejoin:round;stroke-dasharray:none;stroke-opacity:1"
       x="47.482204"
       y="134.40796"
       id="text85-8"><tspan
         id="tspan85-8"
         style="font-style:normal;font-variant:normal;font-weight:normal;font-stretch:normal;font-size:50.8px;font-family:exwayer;-inkscape-font-specification:'exwayer, Normal';font-variant-ligatures:normal;font-variant-caps:normal;font-variant-numeric:normal;font-variant-east-asian:normal;fill:none;fill-opacity:1;stroke:#ffffff;stroke-width:0.264583;stroke-dasharray:none;stroke-opacity:1"
         x="47.482204"
         y="134.40796">COSRWA</tspan></text>
  </g>
</svg>
