<?xml version="1.0" encoding="UTF-8" standalone="no"?>
<!-- Created with Inkscape (http://www.inkscape.org/) -->

<svg
   width="250.00002"
   height="250"
   viewBox="0 0 66.145837 66.145836"
   version="1.1"
   id="svg1"
   sodipodi:docname="CosRwa_crown.svg"
   inkscape:version="1.4.3 (0d15f75042, 2025-12-25)"
   xmlns:inkscape="http://www.inkscape.org/namespaces/inkscape"
   xmlns:sodipodi="http://sodipodi.sourceforge.net/DTD/sodipodi-0.dtd"
   xmlns:xlink="http://www.w3.org/1999/xlink"
   xmlns="http://www.w3.org/2000/svg"
   xmlns:svg="http://www.w3.org/2000/svg">
  <sodipodi:namedview
     id="namedview1"
     pagecolor="#ffffff"
     bordercolor="#000000"
     borderopacity="0.25"
     inkscape:showpageshadow="2"
     inkscape:pageopacity="0.0"
     inkscape:pagecheckerboard="0"
     inkscape:deskcolor="#d1d1d1"
     inkscape:zoom="1.622"
     inkscape:cx="-36.374846"
     inkscape:cy="56.411837"
     inkscape:window-width="2560"
     inkscape:window-height="1020"
     inkscape:window-x="0"
     inkscape:window-y="0"
     inkscape:window-maximized="1"
     inkscape:current-layer="layer1" />
  <defs
     id="defs1">
    <linearGradient
       id="linearGradient24">
      <stop
         style="stop-color:#5fd35b;stop-opacity:1;"
         offset="0.11000001"
         id="stop24" />
      <stop
         style="stop-color:#fffc07;stop-opacity:1;"
         offset="0.50343886"
         id="stop23" />
      <stop
         style="stop-color:#197c98;stop-opacity:1;"
         offset="0.99999998"
         id="stop22" />
    </linearGradient>
    <linearGradient
       xlink:href="#linearGradient24"
       id="linearGradient2"
       gradientUnits="userSpaceOnUse"
       x1="105.56514"
       y1="122.13865"
       x2="169.96431"
       y2="122.13865" />
    <linearGradient
       inkscape:collect="always"
       xlink:href="#linearGradient24"
       id="linearGradient1"
       gradientUnits="userSpaceOnUse"
       x1="105.56514"
       y1="122.13865"
       x2="169.96431"
       y2="122.13865" />
  </defs>
  <g
     id="layer1"
     transform="translate(-104.775,-89.164583)">
    <rect
       style="display:inline;fill:#ffffff;fill-opacity:1;stroke:url(#linearGradient2);stroke-width:0.79375;stroke-dasharray:none;stroke-opacity:1"
       id="rect1-2"
       width="63.87001"
       height="63.870007"
       x="105.82972"
       y="90.203644"
       ry="3.6493204" />
    <path
       id="path83-8"
       style="baseline-shift:baseline;display:inline;overflow:visible;fill:#ffffff;fill-opacity:1;stroke:#231a71;stroke-width:0.52916668;stroke-dasharray:none;stroke-opacity:1;enable-background:accumulate;stop-color:#000000"
       d="m 164.4959,109.1923 c -0.66687,-0.003 -1.33883,0.21647 -1.89291,0.67024 -1.26652,1.03743 -1.45356,2.9198 -0.41599,4.18631 0.70855,0.86542 1.81061,1.22492 2.84169,1.0356 l 4.67103,12.03647 v -2.93729 l -3.67781,-9.47487 c 0.12069,-0.0728 0.23775,-0.15462 0.34985,-0.2465 1.26682,-1.03737 1.45314,-2.91558 0.41548,-4.18217 -0.58353,-0.71258 -1.43376,-1.08394 -2.29134,-1.08779 z m -1.50223,6.12211 -2.12752,12.14758 -5.76347,-3.30936 a 2.4558762,2.4558762 0 0 0 -0.2434,-2.75539 2.4558762,2.4558762 0 0 0 -3.4556,-0.34365 2.4558762,2.4558762 0 0 0 -0.34365,3.45561 2.4558762,2.4558762 0 0 0 1.71359,0.89296 l 0.2775,4.454 1.05937,-0.0667 -0.28422,-4.53874 a 2.4558762,2.4558762 0 0 0 0.60203,-0.32918 l -0.0279,0.0486 7.24814,4.15789 2.39055,-13.62863 z m -26.72654,2.07377 a 4.0298953,4.0298953 0 0 0 -2.42569,0.91054 l -0.001,-0.001 a 4.0298953,4.0298953 0 0 0 -0.56327,5.67097 4.0298953,4.0298953 0 0 0 4.20904,1.3255 l 2.58589,5.74642 2.07481,9.82989 4.02869,0.006 3.21686,3.76463 0.80512,-0.68781 -3.53415,-4.13618 -3.65559,-0.004 -1.92133,-9.10539 -2.62568,-5.83272 a 4.0298953,4.0298953 0 0 0 0.48782,-0.34261 4.0298953,4.0298953 0 0 0 0.37983,-0.35553 l 11.17399,6.52053 1.81746,0.78858 c 0.0822,-0.0733 0.18815,-0.15821 0.32091,-0.2558 0.0205,-0.0336 0.0588,-0.089 0.0786,-0.13952 0.0586,-0.12576 0.0294,-0.0622 0.0884,-0.19327 0.0464,-0.10278 0.0942,-0.19966 0.14417,-0.29249 l -1.9699,-0.85318 -11.03137,-6.43785 a 4.0298953,4.0298953 0 0 0 -0.4377,-4.45141 4.0298953,4.0298953 0 0 0 -3.2458,-1.47433 z m 21.58473,13.37903 4.92683,8.9638 c -2.8856,1.86385 -5.66605,3.88924 -8.33489,6.04872 -2.58559,2.09249 -5.07542,4.31906 -7.38043,6.72931 l -2.89388,-3.5326 -4.81727,4.79299 -7.08639,-3.8654 -0.50901,0.93069 5.93813,3.23908 h 2.85254 l 3.53881,-3.52227 2.18436,2.66651 0.54312,-0.44494 c -0.40429,0.42765 -0.80315,0.86128 -1.19528,1.3007 h 1.43144 c 2.47957,-2.6902 5.20586,-5.15703 8.06101,-7.46725 3.64905,-2.95234 7.50574,-5.64941 11.55278,-8.02018 0.61091,-0.35793 1.2266,-0.70868 1.84588,-1.05161 l 0.90279,-0.46716 c -0.002,-0.004 -0.005,-0.0109 -0.006,-0.016 0.0977,-0.0526 0.19563,-0.10477 0.29352,-0.15709 v -1.20872 c -1.20529,0.63354 -2.3959,1.29455 -3.57084,1.98283 -0.82661,0.48423 -1.64505,0.98202 -2.45567,1.49241 l -3.47524,-6.32467 4.94957,1.96008 3.0825,-1.63814 -0.49919,-0.93534 -2.6479,1.40818 z m -23.49365,4.90668 a 2.4558762,2.4558762 0 0 0 -1.47795,0.555 v -5.1e-4 a 2.4558762,2.4558762 0 0 0 -0.34313,3.45612 2.4558762,2.4558762 0 0 0 2.6541,0.78031 l 2.10995,6.30194 -12.32845,-0.30386 -0.0243,1.06144 13.83274,0.33745 -2.65048,-7.92459 -0.0527,0.0181 a 2.4558762,2.4558762 0 0 0 0.25838,-3.38325 2.4558762,2.4558762 0 0 0 -1.97817,-0.89814 z m 18.8929,1.0852 -0.19637,2.80087 2.20762,3.00085 -5.60069,4.58835 0.67282,0.82165 6.37843,-5.22552 -2.57194,-3.50004 0.13281,-1.90066 c -0.11105,-0.047 -0.2241,-0.10016 -0.33952,-0.16072 -0.23924,-0.12556 -0.47044,-0.26392 -0.68316,-0.42478 z m -31.8208,7.71426 c -0.66756,-0.003 -1.33928,0.2173 -1.89342,0.67128 -1.26682,1.03738 -1.45157,2.91713 -0.41393,4.18372 1.03738,1.26682 2.91557,1.45365 4.18218,0.416 0.11205,-0.092 0.215,-0.19111 0.31057,-0.29456 l 7.2409,4.62401 h 1.97456 l -8.65115,-5.52369 c 0.38848,-0.97369 0.25199,-2.1253 -0.45682,-2.99052 -0.58351,-0.71257 -1.43459,-1.08297 -2.29289,-1.08624 z" />
    <rect
       style="display:inline;fill:none;fill-opacity:1;stroke:url(#linearGradient1);stroke-width:1.05833335;stroke-dasharray:none;stroke-opacity:1"
       id="rect1-2-2"
       width="63.87001"
       height="63.870007"
       x="105.82972"
       y="90.203644"
       ry="3.6493204" />
  </g>
</svg>
